<svg width="12" height="14" viewBox="0 0 12 14" fill="none" xmlns="http://www.w3.org/2000/svg">
<path id="Vector" d="M5.40006 10.9078L1.9262 7.33665L1.92619 7.33664C1.81379 7.22112 1.66075 7.1557 1.50057 7.1557C1.34039 7.1557 1.18735 7.22112 1.07494 7.33664C0.962628 7.45207 0.9 7.60805 0.9 7.77014C0.9 7.93223 0.962628 8.08822 1.07494 8.20365L5.57429 12.8277L5.57437 12.8278L5.64604 12.7581C5.69248 12.8059 5.74765 12.8439 5.80839 12.8698C5.86913 12.8957 5.93424 12.909 6 12.909C6.06576 12.909 6.13087 12.8957 6.19161 12.8698C6.25235 12.8439 6.30752 12.8059 6.35396 12.7581L5.40006 10.9078ZM5.40006 10.9078L5.40006 1.60461C5.40006 1.44269 5.46263 1.28687 5.57482 1.17157C5.68711 1.05617 5.83999 0.99082 6 0.99082C6.16001 0.99082 6.31289 1.05617 6.42518 1.17157C6.53738 1.28688 6.59994 1.44269 6.59994 1.60461L6.59994 10.9078L10.0738 7.33665L10.0738 7.33664C10.1862 7.22112 10.3393 7.1557 10.4994 7.1557C10.6596 7.1557 10.8127 7.22112 10.9251 7.33664C11.0374 7.45207 11.1 7.60805 11.1 7.77014C11.1 7.93223 11.0374 8.08822 10.9251 8.20365L6.42571 12.8277L5.40006 10.9078Z" fill="white" stroke="white" stroke-width="0.2"/>
</svg>
