<svg width="14" height="12" viewBox="0 0 14 12" fill="none" xmlns="http://www.w3.org/2000/svg">
<path id="Vector" d="M10.817 5.40006L7.24583 1.9262L7.24582 1.92619C7.1303 1.81379 7.06488 1.66075 7.06488 1.50057C7.06488 1.34039 7.1303 1.18735 7.24582 1.07494C7.36125 0.962628 7.51723 0.9 7.67932 0.9C7.84141 0.9 7.9974 0.962628 8.11283 1.07494L12.7369 5.57429L12.737 5.57437L12.6672 5.64604C12.7151 5.69248 12.753 5.74765 12.7789 5.80839C12.8048 5.86913 12.8182 5.93424 12.8182 6C12.8182 6.06576 12.8048 6.13087 12.7789 6.19161C12.753 6.25235 12.7151 6.30752 12.6672 6.35396L10.817 5.40006ZM10.817 5.40006H1.51379C1.35187 5.40006 1.19605 5.46263 1.08075 5.57482C0.965351 5.68711 0.9 5.83999 0.9 6C0.9 6.16001 0.965351 6.31289 1.08075 6.42518C1.19605 6.53738 1.35187 6.59994 1.51379 6.59994H10.817L7.24583 10.0738L7.24582 10.0738C7.1303 10.1862 7.06488 10.3393 7.06488 10.4994C7.06488 10.6596 7.1303 10.8127 7.24582 10.9251C7.36125 11.0374 7.51723 11.1 7.67932 11.1C7.84141 11.1 7.9974 11.0374 8.11283 10.9251L12.7369 6.42571L10.817 5.40006Z" fill="white" stroke="white" stroke-width="0.2"/>
</svg>
