<svg width="358" height="613" viewBox="0 0 358 613" fill="none" xmlns="http://www.w3.org/2000/svg">
<path d="M308.229 330.116C308.229 330.116 310.914 331.459 312.257 331.011C314.047 330.564 321.207 322.509 326.129 321.614C331.051 320.271 336.421 323.404 340.896 323.851C344.924 323.851 350.293 321.614 351.636 322.061C352.978 322.509 353.873 325.641 352.531 327.879C351.189 330.564 345.819 335.039 335.974 331.906L332.841 334.591C332.841 334.591 341.344 341.304 347.609 345.331C353.426 349.358 357.453 354.728 357.453 354.728C357.453 354.728 357.901 359.203 353.873 360.098L338.659 351.596L337.764 352.938C337.764 352.938 349.846 360.098 354.321 366.363C354.321 366.363 354.321 369.048 350.294 370.838V372.628C350.294 372.628 348.951 375.313 345.819 375.76C345.819 375.76 336.421 371.285 330.156 365.468L329.261 365.915C329.261 365.915 335.526 372.628 338.211 377.55C338.211 377.55 336.421 379.788 334.184 379.34C331.946 378.893 319.417 367.706 319.417 367.706C319.417 367.706 309.572 363.678 301.964 353.386L308.229 330.116Z" fill="url(#paint0_linear_404_11012)"/>
<path style="mix-blend-mode:multiply" opacity="0.3" d="M332.842 334.591C332.842 334.591 325.682 341.303 318.075 343.988C318.075 343.988 314.047 349.358 314.942 353.386C315.837 357.413 318.522 360.545 318.522 360.545C318.522 360.545 331.947 351.148 335.527 336.381L332.842 334.591Z" fill="url(#paint1_linear_404_11012)"/>
<path style="mix-blend-mode:multiply" opacity="0.9" d="M340.001 345.332C340.001 345.332 335.526 359.651 324.338 367.706C324.338 367.706 331.946 366.811 335.973 357.861C339.553 349.359 340.001 345.332 340.001 345.332Z" fill="url(#paint2_linear_404_11012)"/>
<path style="mix-blend-mode:multiply" opacity="0.9" d="M335.079 359.651L350.294 370.838C350.294 370.838 336.421 360.546 335.526 358.756L335.079 359.651Z" fill="url(#paint3_linear_404_11012)"/>
<path style="mix-blend-mode:multiply" opacity="0.9" d="M306.887 359.65C306.887 359.65 311.362 339.513 309.572 329.221L301.964 353.833L306.887 359.65Z" fill="url(#paint4_linear_404_11012)"/>
<path d="M216.494 609.351L149.37 608.008C149.37 608.008 149.37 605.771 148.923 602.191C148.475 596.821 148.475 587.871 150.713 578.921C150.713 578.921 150.265 577.579 149.37 575.342C148.028 572.209 145.79 566.839 144 560.574C141.315 553.414 138.63 545.36 136.84 536.857C135.945 531.935 135.05 527.012 134.603 522.537C134.603 521.642 134.603 520.748 134.603 519.853C134.603 516.571 134.752 513.439 135.05 510.455C135.498 502.4 136.84 496.583 138.183 491.213C139.973 485.843 141.315 481.816 142.658 477.788C143.553 473.761 140.42 453.624 137.288 433.487C136.691 430.802 136.244 428.117 135.945 425.432C132.365 407.085 129.233 390.975 129.233 390.975C129.233 390.975 131.47 390.528 135.498 390.08C146.685 388.738 169.955 386.052 182.932 386.052C182.932 386.052 187.407 410.665 186.512 442.884C186.512 447.061 186.363 451.386 186.064 455.861C185.617 464.811 184.722 474.656 182.932 484.053C182.932 484.053 178.905 491.661 176.667 494.793C176.667 494.793 176.518 495.091 176.22 495.688C176.22 498.373 175.325 504.638 174.43 513.14C173.982 517.168 173.535 522.09 173.535 527.012C173.236 531.487 173.236 535.962 173.535 540.437C173.535 546.255 173.982 551.624 174.877 556.994C175.175 559.978 175.623 562.812 176.22 565.497C176.22 565.795 176.369 566.243 176.667 566.839C176.667 566.839 178.905 566.392 179.799 566.839C181.142 567.287 179.799 572.209 179.799 572.209H180.247C180.247 572.657 182.037 574.447 184.274 576.684V577.132C187.407 579.816 191.434 583.396 195.462 585.634C196.357 586.23 197.401 586.678 198.594 586.976C201.279 588.319 203.964 589.661 206.201 590.109C209.781 591.451 212.914 592.346 212.914 592.346C212.914 592.346 216.941 599.506 216.494 609.351Z" fill="#5E239D"/>
<path d="M135.947 425.432C135.499 433.039 135.052 440.647 134.604 447.359C134.604 450.342 134.455 453.027 134.157 455.414C133.709 461.231 133.262 466.601 132.814 469.734C132.516 472.419 131.919 474.954 131.024 477.341C129.234 482.263 127.444 486.291 126.549 488.528C126.251 489.125 125.953 490.318 125.654 492.108C124.759 496.136 123.864 501.953 122.969 508.665C122.074 512.693 121.627 517.168 121.627 521.195C121.179 526.118 120.732 531.04 121.179 534.62C121.179 535.515 121.179 536.41 121.179 537.305C121.627 541.78 122.522 547.15 123.864 552.967C124.759 558.337 126.102 564.154 127.444 569.077C128.787 574.447 129.682 578.474 130.577 581.607C132.814 590.556 132.367 610.246 132.367 610.246C112.677 612.483 75.0877 611.589 75.0877 611.589C74.6402 603.534 77.7726 597.716 77.7726 597.716C88.9599 590.556 100.595 577.579 100.595 577.579C100.595 577.579 95.2248 576.237 95.6723 575.342C96.1198 573.999 98.8047 572.209 98.8047 572.209C98.8047 572.209 95.6723 567.287 92.0923 558.784C89.8549 552.967 87.17 545.807 84.9325 537.305C84.3358 534.62 83.8883 532.084 83.59 529.697C82.9934 526.118 82.695 522.538 82.695 518.958C82.2476 511.798 83.59 505.085 84.9325 499.268C85.8275 493.898 87.1699 488.528 88.0649 484.053C88.9599 479.578 89.4074 475.551 88.9599 471.524C88.0649 465.259 84.9325 445.122 82.2475 424.089C78.6676 399.03 75.9827 372.18 79.1151 364.126C79.1151 364.126 93.4348 362.783 104.622 367.258C115.362 371.733 135.052 389.633 135.499 390.08C136.394 394.555 136.394 409.77 135.947 425.432Z" fill="#5E239D"/>
<g style="mix-blend-mode:soft-light">
<path d="M121.177 534.62C121.177 535.515 121.177 536.41 121.177 537.305C96.1178 543.123 84.9306 537.305 84.9306 537.305C84.3339 534.62 83.8864 532.085 83.5881 529.698C82.9914 526.118 82.5439 522.538 82.2456 518.958C101.488 526.566 115.807 522.986 121.625 521.196C121.177 526.118 120.73 531.041 121.177 534.62Z" fill="#5E239D"/>
</g>
<g style="mix-blend-mode:soft-light">
<path d="M127.444 569.077C122.521 570.866 109.544 574.894 98.8042 572.209C98.8042 572.209 95.6717 567.286 92.0918 558.784C99.2517 559.679 111.334 559.679 123.864 552.967C124.759 558.337 126.101 564.154 127.444 569.077Z" fill="#5E239D"/>
</g>
<g style="mix-blend-mode:soft-light">
<path d="M125.653 492.108C124.758 496.136 123.863 501.953 122.968 508.666C101.488 508.218 89.4061 501.953 84.9312 499.268C85.8261 493.898 87.1686 488.528 88.0636 484.053C99.2509 492.556 117.598 492.556 125.653 492.108Z" fill="#5E239D"/>
</g>
<g style="mix-blend-mode:soft-light">
<path d="M176.22 495.688C176.22 498.373 175.325 504.638 174.43 513.14C166.822 514.482 152.502 515.825 135.05 510.455C135.498 502.4 136.84 496.583 138.183 491.213C143.105 493.003 157.425 497.03 176.22 495.688Z" fill="#5E239D"/>
</g>
<g style="mix-blend-mode:soft-light">
<path d="M173.534 540.437C166.374 541.332 150.264 542.227 136.84 536.857C135.945 531.934 135.05 527.012 134.602 522.537C139.524 524.775 152.502 529.697 173.534 527.012C173.236 531.487 173.236 535.962 173.534 540.437Z" fill="#5E239D"/>
</g>
<g style="mix-blend-mode:soft-light">
<path d="M176.22 565.497C169.955 566.84 157.425 570.42 149.37 575.342C148.028 572.21 145.79 566.84 144 560.575C149.37 560.575 161.9 560.127 174.877 556.995C175.176 559.978 175.623 562.812 176.22 565.497Z" fill="#5E239D"/>
</g>
<g style="mix-blend-mode:multiply" opacity="0.5">
<path d="M206.201 590.109V608.009L148.922 602.191C148.474 596.821 148.474 587.871 150.712 578.922C150.712 578.922 150.264 577.579 149.369 575.342C148.027 572.209 145.789 566.839 143.999 560.574C141.314 553.415 138.629 545.36 136.84 536.857C135.945 531.935 135.05 527.013 134.602 522.538C134.602 521.643 134.602 520.748 134.602 519.853C134.602 516.571 134.751 513.439 135.05 510.455C135.497 502.401 136.84 496.583 138.182 491.213C139.972 485.843 141.314 481.816 142.657 477.788C143.552 473.761 140.419 453.624 137.287 433.487L186.511 442.884C186.511 447.061 186.362 451.386 186.064 455.861C186.064 455.861 166.821 460.784 154.292 471.076C154.292 471.076 162.794 488.528 182.931 484.053C182.931 484.053 178.904 491.661 176.666 494.793C176.666 494.793 176.517 495.091 176.219 495.688C176.219 498.373 175.324 504.638 174.429 513.14C173.981 517.168 173.534 522.09 173.534 527.013C173.236 531.487 173.236 535.962 173.534 540.437C173.534 546.255 173.981 551.625 174.876 556.995C175.175 559.978 175.622 562.812 176.219 565.497C176.219 565.795 176.368 566.243 176.666 566.839C176.666 566.839 166.822 569.972 160.109 576.684C160.557 576.684 170.849 571.762 179.799 572.209H180.246C180.246 572.657 182.036 574.447 184.274 576.684V577.132C187.406 579.817 191.434 583.397 195.461 585.634C196.356 586.231 197.4 586.678 198.593 586.977C201.278 588.319 203.963 589.661 206.201 590.109Z" fill="#5E239D"/>
</g>
<g style="mix-blend-mode:multiply" opacity="0.5">
<path d="M134.602 438.409V455.414C134.602 455.414 134.453 455.414 134.155 455.414C131.022 454.071 114.018 447.359 97.9078 455.414C97.9078 455.414 100.593 466.601 105.068 472.866C109.99 478.683 131.022 477.341 131.022 477.341C129.232 482.263 127.442 486.291 126.547 488.528C126.249 489.125 125.951 490.318 125.652 492.108C124.757 496.135 123.862 501.953 122.967 508.665C122.072 512.693 121.625 517.167 121.625 521.195C121.177 526.117 120.73 531.04 121.177 534.62C121.177 535.515 121.177 536.41 121.177 537.305C121.625 541.78 122.52 547.149 123.862 552.967C124.757 558.337 126.1 564.154 127.442 569.077C128.785 574.446 129.68 578.474 130.575 581.606L121.625 594.583H109.99C109.99 594.583 105.963 579.369 100.593 577.579L94.3279 577.131L95.6704 575.341C95.6704 575.341 106.858 577.579 118.492 578.026C118.492 578.026 102.383 573.551 98.8028 572.209C98.8028 572.209 95.6703 567.286 92.0904 558.784C89.853 552.967 87.168 545.807 84.9306 537.305C84.3339 534.62 83.8864 532.084 83.5881 529.697C82.9914 526.117 82.5439 522.537 82.2456 518.957C82.2456 511.798 83.5881 505.085 84.9306 499.268C85.8256 493.898 87.168 488.528 88.063 484.053C88.958 479.578 89.4055 475.551 88.958 471.523C88.063 465.258 84.9306 445.121 82.2456 424.089L134.602 438.409Z" fill="#5E239D"/>
</g>
<path d="M132.366 610.247C132.366 610.247 96.1194 613.379 75.0872 611.589C75.0872 611.589 74.1922 603.982 77.7722 597.717C77.7722 597.717 80.4571 595.48 84.4845 592.347C85.827 593.242 88.512 594.137 93.8819 594.585C103.727 595.032 117.151 589.215 117.151 589.215C117.151 589.215 109.544 583.397 94.7769 582.95C97.0143 581.16 99.2518 578.923 100.594 577.58C100.594 577.58 114.914 577.58 123.416 584.74L129.234 577.133C129.234 577.133 134.156 590.11 132.366 610.247Z" fill="#F5B822"/>
<path d="M216.494 609.351L149.37 608.009C149.37 608.009 147.132 593.242 150.712 578.922L159.662 583.844C159.662 583.844 170.402 573.552 179.799 572.209H180.247L184.274 576.684V577.132C184.274 577.132 179.799 580.712 177.562 586.082C177.562 586.082 188.302 589.214 198.594 586.977C205.306 590.557 212.914 592.347 212.914 592.347C212.914 592.347 216.941 599.507 216.494 609.351Z" fill="#F5B822"/>
<g style="mix-blend-mode:multiply" opacity="0.8">
<path d="M142.658 473.76C142.658 473.76 167.27 456.756 186.065 455.861V449.148L139.525 446.463L142.658 473.76Z" fill="#5E239D"/>
</g>
<path style="mix-blend-mode:multiply" opacity="0.8" d="M86.7205 457.204C86.7205 457.204 117.597 445.569 134.155 455.414L135.05 442.884L82.2456 424.089L86.7205 457.204Z" fill="url(#paint5_linear_404_11012)"/>
<path d="M136.393 270.153V282.235L156.082 272.39V250.463L136.393 270.153Z" fill="url(#paint6_linear_404_11012)"/>
<path d="M253.188 45.5116L218.284 23.5846L207.544 16.4247C207.544 16.4247 209.781 13.7397 212.914 10.6073C219.179 4.78986 229.023 -2.36999 237.526 0.76245C250.503 5.68486 250.951 23.5846 250.951 23.5846C250.951 23.5846 254.978 24.4795 255.425 30.2969C256.32 33.8769 255.425 38.3518 253.188 45.5116Z" fill="url(#paint7_linear_404_11012)"/>
<path style="mix-blend-mode:multiply" opacity="0.6" d="M253.188 45.5116L218.284 23.5846L207.544 16.4247C207.544 16.4247 209.781 13.7397 212.914 10.6073C212.914 10.6073 230.366 16.4246 237.526 28.5069C237.526 28.5069 245.581 7.02734 237.526 0.762451C250.503 5.68486 250.951 23.5846 250.951 23.5846C250.951 23.5846 250.951 32.0869 246.476 38.3518C246.476 38.3518 254.53 38.7993 255.425 30.2969C256.32 33.8769 255.425 38.3518 253.188 45.5116Z" fill="url(#paint8_linear_404_11012)"/>
<path d="M95.2233 162.754C95.2233 162.754 110.438 139.485 104.621 91.6033L98.3557 92.4982C98.3557 92.4982 77.7711 134.115 95.2233 162.754Z" fill="#9A292C"/>
<path d="M95.6708 94.2885C95.6708 94.2885 75.9812 134.563 79.1136 150.672C79.1136 150.672 85.3785 160.517 95.2233 162.755C95.2233 162.755 86.7209 126.06 100.146 94.736L98.3558 92.4985L95.6708 94.2885Z" fill="url(#paint9_linear_404_11012)"/>
<path d="M56.2919 336.381C56.2919 336.381 62.5568 343.094 62.1093 348.464C62.1093 353.386 55.8444 358.756 54.0545 363.231C52.2645 367.706 51.3696 373.523 50.4746 374.418C50.0271 374.866 44.6572 374.866 43.7622 369.496C42.4197 364.126 46.4471 359.651 47.3421 357.413C48.2371 355.176 47.3421 351.596 47.3421 351.596C47.3421 351.596 37.9448 358.308 33.4699 362.783C28.995 367.258 20.4926 370.391 20.4926 370.391C20.4926 370.391 16.9127 374.866 13.7802 375.761C13.7802 375.761 10.2003 375.313 9.3053 371.733C9.3053 371.733 4.8304 371.733 3.93542 369.943C3.04043 368.153 6.1729 360.993 8.85785 356.519C8.85785 356.22 8.85785 356.071 8.85785 356.071C8.41036 356.519 4.8304 359.203 3.93542 360.098C3.04043 360.546 0.355469 358.756 0.355469 356.071C0.355469 356.071 7.06786 348.464 15.1227 342.199C23.1776 335.934 35.2599 329.669 37.0498 327.879C38.8398 326.089 47.7896 306.399 47.7896 306.399C47.7896 306.399 57.6344 317.587 65.2418 322.062L56.2919 336.381Z" fill="url(#paint10_linear_404_11012)"/>
<path style="mix-blend-mode:multiply" opacity="0.9" d="M37.0501 327.878C37.0501 327.878 34.8125 334.591 42.8674 339.961C50.9222 345.33 56.2921 336.381 56.2921 336.381L37.0501 327.878Z" fill="url(#paint11_linear_404_11012)"/>
<path d="M176.219 183.34C176.219 183.34 177.114 190.947 173.981 199.449C173.981 199.449 187.406 220.929 198.146 218.691C209.333 216.901 204.411 201.239 204.411 201.239C204.411 201.239 203.068 192.737 204.411 186.919L176.219 183.34Z" fill="url(#paint12_linear_404_11012)"/>
<path style="mix-blend-mode:multiply" opacity="0.9" d="M175.772 193.184C175.772 193.184 181.59 203.476 191.435 206.161C201.727 209.293 203.964 197.659 203.964 197.659V192.736L176.22 186.471L175.772 193.184Z" fill="url(#paint13_linear_404_11012)"/>
<path style="mix-blend-mode:multiply" opacity="0.5" d="M203.964 264.335C203.964 264.335 207.096 255.833 206.649 245.541C206.649 235.248 199.936 224.956 199.936 224.956C199.936 224.956 191.881 246.883 180.694 251.358C169.954 256.28 162.794 239.723 162.794 239.723L169.507 209.741C169.507 209.741 192.329 222.718 199.936 218.244C207.544 213.769 210.676 206.609 210.676 206.609C210.676 206.609 217.388 242.408 212.019 264.335H203.964Z" fill="url(#paint14_linear_404_11012)"/>
<path d="M269.746 151.12C268.851 162.307 248.713 186.472 226.339 191.842C209.334 195.869 183.38 190.052 163.69 181.102C157.873 177.969 152.503 175.284 148.028 171.705C128.338 157.385 101.936 117.558 111.781 73.7039C111.781 73.7039 111.93 73.5547 112.228 73.2564C114.913 60.7266 121.178 50.4343 129.233 42.827C146.238 27.1648 172.64 22.2423 198.594 23.5848C237.974 25.8223 258.111 51.7768 260.348 70.1239C262.586 88.0236 257.663 119.348 260.348 126.508C260.647 127.105 260.796 127.701 260.796 128.298C263.928 135.01 270.641 140.38 269.746 151.12Z" fill="url(#paint15_linear_404_11012)"/>
<path style="mix-blend-mode:multiply" opacity="0.3" d="M305.991 326.537C305.991 326.537 304.201 348.464 294.804 352.939L290.777 351.149V351.596C290.329 352.044 285.854 358.756 269.745 355.176C253.187 351.596 233.05 328.326 227.68 308.189C222.31 288.5 221.415 270.153 221.415 270.153L216.94 269.705L221.863 228.983C221.863 228.983 225.443 247.778 231.26 266.573C237.078 284.92 257.662 299.239 278.247 303.267C278.247 303.267 251.397 301.03 231.26 279.997C231.708 281.34 246.028 322.509 261.242 332.801C277.352 343.541 294.357 335.934 294.357 335.934C294.357 335.934 287.197 344.436 275.114 344.884C275.114 344.884 278.694 349.806 284.959 350.701C290.777 351.149 303.754 338.171 305.096 325.642L305.991 326.537Z" fill="url(#paint16_linear_404_11012)"/>
<path style="mix-blend-mode:multiply" opacity="0.6" d="M256.768 140.38C251.846 141.723 248.713 139.485 248.713 139.485C246.923 135.905 240.211 135.01 236.184 126.955C232.604 118.901 234.394 104.581 237.526 91.6035C240.211 78.6263 251.398 74.5988 251.398 74.5988L255.426 66.544C239.764 44.1694 212.467 28.5072 189.197 45.5119C168.612 60.7266 163.69 96.526 163.69 96.526C180.247 79.9688 197.699 72.8089 197.699 72.8089C206.202 82.2062 214.704 120.243 212.019 135.905C211.572 141.275 203.964 151.567 186.065 153.357C167.717 155.147 148.028 134.115 148.028 134.115C147.58 157.385 163.69 181.102 163.69 181.102C157.873 177.969 152.503 175.284 148.028 171.705C128.338 157.385 101.936 117.558 111.781 73.7039C111.781 73.7039 111.93 73.5547 112.228 73.2564L129.233 42.827C146.238 27.1648 172.64 22.2423 198.594 23.5848C237.974 25.8223 258.111 51.7768 260.348 70.1239C262.586 88.0236 257.663 119.348 260.348 126.508C260.348 127.403 261.691 139.038 256.768 140.38Z" fill="url(#paint17_linear_404_11012)"/>
<path style="mix-blend-mode:multiply" opacity="0.3" d="M158.32 263.44L149.818 262.545C149.818 262.545 142.21 263.887 129.233 283.577C116.703 303.714 102.384 315.349 89.4063 322.061C75.9816 328.326 71.0592 332.801 68.3742 333.248C66.1368 333.248 63.0043 331.459 63.0043 331.459L59.8718 335.038C42.8672 331.906 41.9722 316.244 41.9722 316.244C41.9722 316.244 46.4471 325.641 50.922 327.431C54.9494 329.669 64.3468 330.564 70.6117 327.431C76.8766 324.746 94.7762 308.189 94.7762 308.189C75.9816 315.349 54.0544 314.454 54.0544 314.454C100.146 308.636 148.923 254.042 153.398 242.855C157.873 231.668 159.662 209.741 159.662 209.741C161.005 214.663 158.768 255.832 158.32 263.44Z" fill="url(#paint18_linear_404_11012)"/>
<path d="M262.586 75.9409C262.586 83.1008 261.691 88.9181 260.796 91.1556C260.796 91.1556 260.796 91.3048 260.796 91.6031C260.796 91.9015 260.796 92.0506 260.796 92.0506C260.796 91.1557 262.139 71.466 254.979 60.7262C248.267 50.4339 230.814 37.4566 207.992 32.5342C207.694 32.5342 207.545 32.5342 207.545 32.5342C206.352 32.5342 205.158 32.385 203.965 32.0867L200.833 31.6392C200.534 31.6392 200.236 31.6392 199.937 31.6392C199.341 31.6392 199.042 31.6392 199.042 31.6392L204.412 30.7442L203.07 30.2968L189.645 28.5068L193.225 29.8492L200.385 32.9817C200.385 32.9817 200.236 32.9817 199.937 32.9817C199.043 33.28 197.551 34.0258 195.463 35.2191C189.198 38.7991 178.01 45.5114 166.376 57.5937C165.779 58.4887 165.033 59.2345 164.138 59.8312C157.426 66.991 152.503 74.1509 149.818 79.9683C144.896 88.4706 144.001 94.2881 144.001 94.2881L148.028 90.2606C148.028 90.2606 146.238 101.448 139.079 113.53C139.079 113.53 139.079 130.535 147.581 147.987L142.659 146.645C142.659 146.645 130.129 137.247 116.704 139.932C116.704 139.634 116.704 139.485 116.704 139.485C115.362 137.695 110.439 127.85 106.412 114.425C106.412 114.425 106.412 114.276 106.412 113.978C105.218 110.398 104.174 106.519 103.279 102.343C103.279 101.15 103.13 100.255 102.832 99.658C102.832 99.3597 102.832 99.2105 102.832 99.2105C102.832 98.9121 102.832 98.6138 102.832 98.3155C101.489 90.2606 101.042 81.7583 101.937 72.8085C105.069 49.9864 132.366 28.9543 152.503 24.9269C172.193 20.452 188.303 21.7944 188.303 21.7944C188.303 21.7944 199.043 16.872 205.307 16.4245C207.992 15.977 213.362 17.767 220.075 20.452C224.102 22.2419 228.577 24.9268 233.052 27.6118C234.842 28.8051 236.483 29.9984 237.974 31.1917C243.344 35.2192 248.714 40.1416 253.189 45.5115C253.189 45.8098 253.338 45.959 253.636 45.959C258.559 52.2239 260.796 59.3837 262.139 66.0961C262.139 66.3944 262.139 66.5436 262.139 66.5436C262.735 69.8252 262.885 72.9576 262.586 75.9409Z" fill="url(#paint19_linear_404_11012)"/>
<path d="M102.831 98.3159C102.831 98.3159 115.808 99.6583 124.311 83.5486C133.261 67.4389 126.101 46.8543 120.283 42.3794L102.831 98.3159Z" fill="url(#paint20_linear_404_11012)"/>
<path d="M200.384 32.9819C200.384 32.9819 200.235 32.9819 199.937 32.9819C199.042 33.2802 197.55 34.026 195.462 35.2193C195.462 35.2193 194.716 35.5177 193.224 36.1144C186.959 39.6943 177.115 45.9592 166.375 57.5939C160.557 64.3063 154.74 71.9137 149.818 79.9685C139.525 95.6307 130.576 110.398 122.968 112.635C112.676 115.768 103.279 99.6582 102.831 98.3157C102.831 98.3157 102.98 98.3157 103.279 98.3157L105.516 97.8682C105.516 97.8682 119.388 103.238 127.443 95.6307C133.26 89.8133 139.973 67.8862 151.608 50.8816C154.293 46.4066 156.978 42.8267 160.557 39.2468C161.452 38.6502 162.198 37.9043 162.795 37.0094C174.877 27.1645 186.065 27.612 193.224 29.8495C197.252 31.1919 199.937 32.5344 200.384 32.9819Z" fill="url(#paint21_linear_404_11012)"/>
<path d="M263.033 77.284C263.033 83.9964 261.243 89.8137 260.796 91.6037C260.796 91.902 260.796 92.0512 260.796 92.0512C260.796 90.7087 260.348 65.6492 246.029 52.6719C233.499 41.0372 218.284 35.6672 208.439 33.4298C204.859 32.5348 201.727 31.6398 199.937 31.6398C199.34 31.6398 199.042 31.6398 199.042 31.6398C199.34 31.3415 200.683 30.894 203.07 30.2973C207.544 29.4024 216.494 28.0598 228.576 28.5073C231.858 28.8057 234.991 29.7007 237.974 31.1923C244.239 34.3248 249.609 40.1422 253.636 45.9596C257.663 52.6719 260.796 60.2793 262.138 66.0967C262.138 66.395 262.138 66.5441 262.138 66.5441C262.735 70.4224 263.033 74.0024 263.033 77.284Z" fill="url(#paint22_linear_404_11012)"/>
<path d="M314.776 326.24C312.995 343.485 304.09 349.234 304.09 349.234C301.418 349.234 299.192 348.792 296.966 348.349C294.74 347.465 293.404 347.023 292.959 346.581V347.023C292.514 347.465 288.061 354.098 272.033 350.56C255.559 347.023 235.523 324.029 230.181 304.131C224.838 284.675 223.947 266.545 223.947 266.545L219.495 266.103L161.169 259.912L152.709 259.028C152.709 259.028 145.14 260.355 132.228 279.811C119.762 299.709 105.514 311.206 92.6023 317.839C79.2452 324.029 74.3476 328.451 71.6762 328.893C69.45 328.893 66.3333 327.125 66.3333 327.125L63.2166 330.662L60.9904 333.315C60.9904 333.315 55.6476 336.41 48.5238 333.757C41.4 330.662 39.1738 322.703 39.1738 322.703L45.4071 312.09C48.969 293.076 69.8952 274.062 89.0404 259.47L89.4856 259.028C90.6729 258.144 91.8602 257.259 93.0475 256.375C94.8284 255.196 96.461 254.017 97.9451 252.837C97.9451 252.543 97.9451 252.543 97.9451 252.837C116.645 237.361 134.9 215.694 143.805 207.735C153.155 199.333 161.169 195.796 167.847 194.469C174.526 192.7 178.533 190.49 178.533 190.49L207.028 196.238C207.028 196.238 220.831 201.544 227.064 209.061C233.297 216.136 246.654 247.531 264.909 273.178C283.164 299.267 304.535 317.839 305.426 318.723C306.316 319.607 307.207 321.376 307.207 321.376L308.097 322.261L314.776 326.24Z" fill="url(#paint23_linear_404_11012)"/>
<path d="M224.548 269.259C223.653 279.551 218.283 314.455 216.493 339.962C214.703 365.469 212.466 446.018 212.466 446.018C156.082 459.442 90.7479 436.173 90.7479 436.173L89.8529 431.698C79.1131 427.671 68.8208 420.063 68.8208 420.063L71.0583 417.378C71.0583 417.378 68.3733 383.369 75.0857 363.679C81.7981 344.437 102.383 327.432 111.333 316.245C120.282 305.505 131.917 279.998 131.917 279.998C135.05 275.076 140.419 269.259 140.419 269.259C164.137 260.756 160.557 210.19 158.767 205.715C156.529 200.792 152.949 201.687 152.949 201.687L153.397 199.897L165.926 194.975C170.849 217.797 169.954 262.099 169.954 262.099C186.064 264.336 212.018 264.336 212.018 264.336C212.018 264.336 215.151 245.541 213.361 225.404C211.123 205.715 204.411 199.002 204.411 199.002L203.826 195.556L212.438 198.089L214.972 203.662C225.711 225.141 225.443 258.966 224.548 269.259Z" fill="#5E239D"/>
<path d="M237.593 343.446C231.613 414.542 201.711 469.093 171.012 465.963C140.313 462.386 120.379 402.022 126.359 331.373C132.738 260.278 162.64 205.726 193.339 208.856C224.038 212.433 243.972 272.798 237.593 343.446Z" fill="#5E239D"/>
<path d="M174.948 192.009L169.375 194.036C169.375 194.036 162.348 210.636 163.69 223.165C165.033 236.143 172.64 248.225 179.353 249.567C186.513 250.91 195.462 236.143 198.147 218.691C198.147 218.691 192.777 219.585 185.618 214.216C178.905 208.846 172.263 196.932 174.948 192.009Z" fill="url(#paint24_linear_404_11012)"/>
<path style="mix-blend-mode:multiply" opacity="0.6" d="M195.462 35.2199C189.197 38.7999 178.01 45.5122 166.375 57.5945C160.557 64.3069 154.74 71.9142 149.818 79.9691C144.895 88.4714 144 94.2889 144 94.2889L148.028 90.2614C148.028 90.2614 146.238 101.449 139.078 113.531C139.078 113.531 139.078 130.536 147.58 147.988L142.658 146.645C142.658 146.645 130.128 137.248 116.703 139.933C116.703 139.635 116.703 139.486 116.703 139.486C112.228 132.773 108.648 122.928 106.411 114.426C106.411 114.426 106.411 114.277 106.411 113.979C104.621 107.714 103.279 101.896 102.831 99.6588C102.831 99.3605 102.831 99.2113 102.831 99.2113C102.831 98.9129 102.831 98.6146 102.831 98.3163C102.831 98.3163 102.98 98.3163 103.279 98.3163C105.068 97.8688 114.018 96.0788 119.836 87.129C126.548 76.3892 124.311 48.1972 124.311 48.1972C124.311 48.1972 127.443 38.7999 144 30.2976C162.347 20.4527 189.197 25.3751 189.197 25.3751C189.197 25.3751 157.425 22.2427 146.685 31.64C136.393 40.5899 136.393 66.5443 136.393 66.5443C140.868 62.9644 146.685 56.6995 151.608 50.8821C152.503 49.3905 153.398 48.1972 154.293 47.3023C143.553 63.8595 136.393 88.4715 136.393 88.4715L146.685 77.7316C161.005 54.0146 186.065 40.1424 193.224 36.115C194.716 35.5183 195.462 35.2199 195.462 35.2199Z" fill="url(#paint25_linear_404_11012)"/>
<path d="M112.676 93.8413C112.676 93.8413 120.283 116.663 117.598 130.536C117.598 130.536 125.653 130.536 136.393 125.166C136.393 125.166 129.68 97.8687 117.151 87.1289L112.676 93.8413Z" fill="url(#paint26_linear_404_11012)"/>
<path d="M117.599 130.535C117.599 130.535 108.649 114.426 109.991 94.736L113.571 92.946C113.571 92.946 121.626 114.426 117.599 130.535Z" fill="#9A292C"/>
<path d="M112.229 94.2888C102.384 102.344 99.2518 96.0788 99.2518 96.0788C87.1695 94.2888 81.7996 86.234 80.0097 76.3891C79.7113 76.3891 79.5622 76.3891 79.5622 76.3891C77.3248 64.7544 80.4572 51.3296 84.0371 47.3022C88.0646 42.8273 92.5394 41.4848 95.6719 41.0373C97.9093 40.5898 99.2518 41.0373 99.2518 41.0373C99.2518 41.0373 108.649 33.8774 117.151 39.2473C117.748 39.844 118.345 40.4406 118.941 41.0373C127.444 49.0921 122.074 85.7865 112.229 94.2888Z" fill="url(#paint27_linear_404_11012)"/>
<path d="M157.874 103.686C157.874 103.686 172.641 80.4164 197.701 72.8091C197.701 72.8091 199.043 79.5214 194.121 84.4438C194.121 84.4438 178.459 84.4438 157.874 103.686Z" fill="url(#paint28_linear_404_11012)"/>
<path d="M237.975 88.4708C237.975 88.4708 243.344 70.5711 255.427 66.5437C255.427 66.5437 258.112 69.2287 258.559 75.9411C258.559 75.9411 246.924 75.9411 237.975 88.4708Z" fill="url(#paint29_linear_404_11012)"/>
<path d="M165.031 134.115C165.926 145.302 180.694 153.357 192.328 151.12C204.858 149.33 207.543 135.905 206.648 124.27C205.306 112.188 199.936 106.371 195.013 105.028C188.301 102.791 163.689 109.951 165.031 134.115Z" fill="url(#paint30_linear_404_11012)"/>
<path d="M259.454 124.269C259.454 126.059 259.305 127.849 259.007 129.639C258.559 132.772 257.664 135.457 256.769 136.799C254.532 139.484 250.057 140.379 246.924 139.484C245.135 139.036 243.345 138.142 242.45 137.247C231.71 122.927 242.897 100.552 248.267 98.3148C251.847 96.9723 256.769 101.447 258.559 109.95C259.007 112.187 259.454 114.872 259.454 117.557C259.753 119.944 259.753 122.181 259.454 124.269Z" fill="url(#paint31_linear_404_11012)"/>
<path d="M238.421 125.613C238.421 125.613 240.659 105.475 252.294 101.001C252.294 101.001 258.558 102.79 259.453 115.768C259.453 115.768 260.348 97.8681 250.056 95.6306C250.056 95.6306 237.526 99.6581 238.421 125.613Z" fill="#6D3A51"/>
<path d="M165.032 134.115C165.032 134.115 167.27 114.425 183.379 108.16C201.279 101.448 205.754 119.347 205.754 119.347C205.754 119.347 202.622 101 189.197 101.895C176.22 102.79 163.242 116.662 165.032 134.115Z" fill="#6D3A51"/>
<path d="M205.307 141.275C201.28 149.33 193.672 152.91 187.408 149.777C181.59 147.092 179.353 138.142 183.38 130.535C186.96 122.928 195.015 119.348 201.28 122.033C207.097 125.165 208.887 133.667 205.307 141.275Z" fill="url(#paint32_linear_404_11012)"/>
<path d="M203.517 140.379C200.832 145.749 195.014 148.882 190.539 146.644C186.064 144.407 184.722 138.142 187.407 132.325C190.092 126.955 195.909 124.27 200.384 126.507C204.859 128.297 206.201 134.562 203.517 140.379Z" fill="#522F2E"/>
<path d="M259.453 124.27C259.752 125.762 259.603 127.403 259.006 129.193C259.006 129.193 259.006 129.342 259.006 129.64C258.559 132.773 257.664 135.458 256.769 136.8C254.531 139.485 250.056 140.38 246.924 139.485C243.791 136.8 242.449 131.43 244.239 125.165C246.029 118.005 250.951 113.083 255.874 114.426C257.216 114.873 258.558 116.216 259.453 117.558C259.752 119.945 259.752 122.182 259.453 124.27Z" fill="url(#paint33_linear_404_11012)"/>
<path d="M259.005 129.193C259.005 129.193 259.005 129.342 259.005 129.64C257.663 134.563 254.083 137.695 250.503 136.8C247.371 135.905 245.581 130.983 246.923 126.06C248.713 120.69 252.293 117.11 255.425 118.005C257.663 118.453 259.453 121.138 259.453 124.27C259.751 125.762 259.602 127.403 259.005 129.193Z" fill="#522F2E"/>
<path d="M189.197 125.165C189.197 126.507 187.855 127.85 186.512 127.85C185.17 127.85 183.827 126.507 183.827 125.165C183.827 123.375 185.17 122.48 186.512 122.48C187.855 122.48 189.197 123.375 189.197 125.165Z" fill="white"/>
<path d="M251.399 139.932C251.399 139.932 245.581 134.562 237.974 130.087C237.974 130.087 225.444 137.247 226.787 147.092C226.787 147.092 242.449 147.539 246.476 145.302C250.951 143.512 251.399 139.932 251.399 139.932Z" fill="#F58E6F"/>
<path d="M250.057 118.006C250.057 119.348 249.162 120.243 247.82 120.243C246.477 120.243 245.135 119.348 245.135 118.006C245.135 116.663 246.477 115.768 247.82 115.768C249.162 115.768 250.057 116.663 250.057 118.006Z" fill="white"/>
<path d="M248.715 139.485C248.715 139.485 250.057 142.17 244.24 142.618C238.422 143.513 229.025 144.855 226.788 147.093C226.788 147.093 233.947 150.225 240.212 150.673C240.212 150.673 250.505 146.645 248.715 139.485Z" fill="#DD6668"/>
<path d="M212.466 159.175C212.466 159.175 208.886 182.892 225.891 186.472C239.316 189.604 240.211 170.809 243.343 165.887L212.466 159.175Z" fill="#F47C5C"/>
<path d="M240.211 150.672C240.211 150.672 248.713 145.302 248.713 141.722C249.161 133.22 237.079 133.667 234.841 125.165C232.604 116.663 234.841 101 234.841 101C234.841 101 233.499 118.005 236.184 125.165C238.869 131.43 250.951 137.695 251.398 139.932C252.293 142.617 248.713 148.435 240.211 150.672Z" fill="#CC5268"/>
<path d="M229.024 148.436C229.024 148.436 235.289 145.303 237.526 149.33C237.526 149.33 233.946 150.225 229.024 148.436Z" fill="#A13751"/>
<path d="M250.056 156.937C244.239 161.412 240.659 172.599 237.527 177.074C233.947 181.997 224.997 185.129 217.837 179.312C214.705 176.179 212.915 169.914 212.467 164.544C212.02 159.622 212.467 155.595 213.362 155.147C216.047 153.805 231.709 157.832 237.974 157.385C246.476 156.49 250.056 156.937 250.056 156.937Z" fill="#8B2E45"/>
<path d="M220.074 155.594C220.074 155.594 226.787 162.754 235.289 162.754C238.869 162.754 242.896 156.937 242.896 156.937C242.896 156.937 237.079 157.384 233.051 157.384C229.472 156.937 220.074 155.594 220.074 155.594Z" fill="#FFEBED"/>
<path d="M237.525 177.074C233.945 181.997 224.996 185.129 217.836 179.312C214.703 176.179 212.913 169.914 212.466 164.544C212.466 164.544 216.046 160.965 226.786 165.887C237.078 170.362 237.525 177.074 237.525 177.074Z" fill="url(#paint34_linear_404_11012)"/>
<path d="M166.375 152.91C166.375 154.7 164.585 156.49 162.795 156.49C160.558 156.49 159.215 154.7 159.215 152.91C159.215 150.673 160.558 148.883 162.795 148.883C164.585 148.883 166.375 150.673 166.375 152.91Z" fill="#FFBBA6"/>
<path d="M99.252 41.0369C99.252 41.0369 118.494 44.6168 114.019 72.8088C109.992 101.001 99.252 96.0784 99.252 96.0784C99.252 96.0784 104.174 104.133 117.152 83.5486C130.129 63.4115 121.627 42.3793 115.809 38.7994C110.439 34.772 101.042 38.7994 99.252 41.0369Z" fill="url(#paint35_linear_404_11012)"/>
<path d="M80.0078 76.3882C80.0078 76.3882 93.4326 85.7854 102.83 77.7306C116.702 66.0958 105.515 44.1687 105.515 44.1687C105.515 44.1687 109.542 44.1687 112.675 50.4336C112.675 50.4336 114.912 94.7353 84.0353 87.1279C84.0353 87.1279 80.4553 80.4156 80.0078 76.3882Z" fill="url(#paint36_linear_404_11012)"/>
<path d="M214.255 173.047C214.255 173.047 224.995 185.129 236.629 175.284C236.629 175.284 235.734 170.809 231.707 168.572C231.707 168.572 235.287 169.914 237.524 175.284V177.074C237.524 177.074 233.497 184.234 224.995 182.444C215.15 180.207 214.255 173.047 214.255 173.047Z" fill="#FFEBED"/>
<path style="mix-blend-mode:multiply" opacity="0.6" d="M112.227 94.2886C102.382 102.343 99.25 96.0785 99.25 96.0785C87.1677 94.2885 81.7978 86.2337 80.0078 76.3889C81.3503 81.7588 84.9302 90.2611 93.8801 88.4712C105.962 86.6812 109.095 54.4618 95.67 41.037C96.565 41.4845 106.41 47.3019 108.2 72.809C108.2 72.809 114.912 47.7494 99.25 41.037C99.25 41.037 105.515 39.6946 112.675 50.4344C119.387 61.1742 117.15 76.3889 117.15 76.3889C117.15 76.3889 125.652 51.3293 117.15 39.2471C117.746 39.8437 118.343 40.4404 118.94 41.037C127.442 49.0919 122.072 85.7862 112.227 94.2886Z" fill="url(#paint37_linear_404_11012)"/>
<path style="mix-blend-mode:multiply" opacity="0.6" d="M260.795 92.0511C260.795 90.7086 260.348 65.6491 246.028 52.6718C233.498 41.037 218.284 35.6671 208.439 33.4296L207.544 32.5347C207.544 32.5347 207.693 32.5347 207.991 32.5347C209.334 32.5347 227.681 32.9821 243.343 42.3795C258.558 51.7768 261.69 66.9915 262.585 75.9413C262.884 76.538 263.033 76.9855 263.033 77.2838C263.033 77.2838 263.033 77.433 263.033 77.7313C263.928 85.3386 261.243 91.6036 260.795 92.0511Z" fill="url(#paint38_linear_404_11012)"/>
<path style="mix-blend-mode:multiply" opacity="0.6" d="M233.052 27.6112C217.837 21.3464 192.778 27.1638 192.778 27.1638C203.965 20.4514 220.075 20.4514 220.075 20.4514C224.102 22.2414 228.577 24.9263 233.052 27.6112Z" fill="url(#paint39_linear_404_11012)"/>
<path d="M199.042 32.5342C199.042 32.5342 187.407 22.6893 169.06 32.5342C154.293 41.0365 154.293 79.0733 128.786 95.6305C128.786 95.6305 154.293 88.4706 163.69 67.886C174.43 44.1689 181.142 30.2967 199.042 32.5342Z" fill="url(#paint40_linear_404_11012)"/>
<path style="mix-blend-mode:multiply" opacity="0.3" d="M101.042 266.125C101.042 266.125 120.284 267.915 131.471 262.098C146.686 254.043 151.161 241.513 151.161 241.513C151.161 241.513 126.996 259.86 101.042 266.125Z" fill="url(#paint41_linear_404_11012)"/>
<path d="M199.937 218.243C199.937 218.243 209.334 248.673 218.732 251.358C227.682 254.043 214.704 204.819 211.124 200.344C207.544 195.869 203.964 194.974 203.964 194.974L204.412 199.896C204.412 199.896 207.992 214.216 199.937 218.243Z" fill="url(#paint42_linear_404_11012)"/>
<path style="mix-blend-mode:multiply" opacity="0.9" d="M224.55 249.567C224.55 249.567 233.5 279.102 228.578 310.874C228.578 310.874 223.208 292.526 222.76 283.129C222.313 273.732 224.55 249.567 224.55 249.567Z" fill="url(#paint43_linear_404_11012)"/>
<path style="mix-blend-mode:multiply" opacity="0.3" d="M41.9722 316.244C41.9722 316.244 45.5521 329.669 63.0043 331.459L59.8718 335.038C59.8718 335.038 45.1046 332.801 41.9722 316.244Z" fill="url(#paint44_linear_404_11012)"/>
<path style="mix-blend-mode:multiply" opacity="0.9" d="M173.088 276.417C173.088 276.417 206.65 278.207 214.258 277.76C214.258 277.76 199.938 281.339 193.673 282.234C186.961 283.129 173.088 276.417 173.088 276.417Z" fill="url(#paint45_linear_404_11012)"/>
<path style="mix-blend-mode:multiply" opacity="0.3" d="M290.776 351.595C290.776 351.595 302.859 341.303 305.096 325.641L305.991 326.536C305.991 326.536 305.991 346.225 294.804 352.938L290.776 351.595Z" fill="url(#paint46_linear_404_11012)"/>
<path d="M173.088 276.417L170.85 310.874C170.85 310.874 185.617 325.194 188.302 326.089C190.987 326.984 208.887 315.796 208.887 315.796L214.257 277.76C214.257 277.76 202.622 280.445 195.015 280.445C188.302 280.445 173.088 276.417 173.088 276.417Z" fill="#5E239D"/>
<path style="mix-blend-mode:multiply" opacity="0.9" d="M160.109 254.043C149.817 308.637 97.0128 348.464 97.0128 348.464C97.0128 348.464 80.4556 394.555 89.8529 431.697C79.1131 427.67 68.8208 420.062 68.8208 420.062L71.0583 417.377C71.0583 417.377 68.3733 383.368 75.0857 363.678C81.7981 344.436 102.383 327.432 111.333 316.244C120.282 305.505 131.917 279.997 131.917 279.997C135.05 275.075 140.419 269.258 140.419 269.258C164.137 260.755 160.557 210.189 158.767 205.714C156.529 200.791 152.949 201.686 152.949 201.686L153.397 199.896C154.292 199.896 169.954 200.791 160.109 254.043Z" fill="url(#paint47_linear_404_11012)"/>
<path style="mix-blend-mode:multiply" opacity="0.5" d="M163.688 444.227C163.688 444.227 144.894 420.51 138.181 391.87C131.469 363.231 143.999 335.039 143.999 335.039C143.999 335.039 140.419 366.363 151.159 389.633C167.268 386.5 185.168 383.815 210.675 358.756C207.095 362.336 192.328 386.053 163.688 409.77C163.688 409.77 162.793 429.46 163.688 444.227Z" fill="url(#paint48_linear_404_11012)"/>
<path style="mix-blend-mode:soft-light" d="M212.466 446.016L212.913 438.409C212.913 438.409 181.589 456.309 90.3004 434.381L88.9579 428.564C88.9579 428.564 79.5606 424.089 71.0583 417.377L68.8208 420.062C68.8208 420.062 77.3231 427.222 88.9579 431.249L90.7479 436.171C90.7479 436.171 154.292 458.546 212.466 446.016Z" fill="url(#paint49_linear_404_11012)"/>
<path style="mix-blend-mode:multiply" opacity="0.9" d="M173.088 276.417L172.193 309.531C172.193 309.531 189.197 321.166 191.435 322.509C193.672 324.299 207.544 316.244 207.544 316.244C207.544 316.244 191.882 326.089 188.302 326.089C186.065 326.089 169.955 310.874 169.955 310.874L173.088 276.417Z" fill="url(#paint50_linear_404_11012)"/>
<path style="mix-blend-mode:soft-light" opacity="0.5" d="M102.832 439.752C102.832 439.752 92.5399 371.286 109.992 358.309C126.997 345.331 156.084 449.149 156.084 449.149C156.084 449.149 114.467 443.332 102.832 439.752Z" fill="url(#paint51_linear_404_11012)"/>
<path style="mix-blend-mode:multiply" opacity="0.5" d="M78.2188 426.327C78.2188 426.327 81.7986 401.715 87.616 389.632C87.616 389.632 85.3786 415.587 89.8535 431.697L78.2188 426.327Z" fill="url(#paint52_linear_404_11012)"/>
<path d="M148.924 602.191C148.924 602.191 189.198 607.114 216.495 606.219V609.351L148.924 610.246V602.191Z" fill="url(#paint53_linear_404_11012)"/>
<path d="M132.366 602.191C132.366 602.191 105.964 610.246 75.0874 608.009V611.589C75.0874 611.589 101.489 613.379 132.366 610.246C132.366 610.246 132.366 606.666 132.366 602.191Z" fill="url(#paint54_linear_404_11012)"/>
<path style="mix-blend-mode:multiply" opacity="0.3" d="M8.85701 356.071C8.40951 356.518 4.82955 359.203 3.93457 360.098L14.2269 350.701L8.85701 356.071Z" fill="url(#paint55_linear_404_11012)"/>
<path style="mix-blend-mode:multiply" opacity="0.3" d="M14.2281 371.733C16.913 371.733 20.4929 370.391 20.4929 370.391C20.4929 370.391 16.913 374.865 13.7805 375.76C13.7805 375.76 10.2006 375.313 9.30562 371.733C9.30562 371.733 4.83072 371.733 3.93574 369.943C3.04075 368.153 6.17322 360.993 8.85817 356.518C8.41068 357.413 7.51571 357.861 7.9632 358.756C8.4107 359.651 11.5431 361.441 11.5431 361.441C13.7805 358.308 19.5979 352.043 19.5979 352.043L13.3331 360.993L17.808 362.336C19.1505 361.888 27.2053 356.518 28.1003 355.623C22.2829 360.993 12.4381 367.706 12.4381 367.706C12.4381 370.391 14.2281 371.733 14.2281 371.733Z" fill="url(#paint56_linear_404_11012)"/>
<path style="mix-blend-mode:multiply" opacity="0.9" d="M9.30518 371.733C9.30518 371.733 9.75267 365.916 11.5426 361.441C13.7801 356.966 22.2825 349.358 22.2825 349.358C22.2825 349.358 14.6751 358.308 12.8851 361.888C11.0952 365.468 9.30518 371.733 9.30518 371.733Z" fill="url(#paint57_linear_404_11012)"/>
<path style="mix-blend-mode:multiply" opacity="0.9" d="M14.229 366.811C14.229 366.811 16.9139 362.783 18.2564 361.888C19.5989 361.441 28.9962 355.176 28.9962 355.176C28.9962 355.176 18.2564 364.126 14.229 366.811Z" fill="url(#paint58_linear_404_11012)"/>
<path d="M220.074 155.595C220.074 155.595 228.129 155.595 235.736 154.7C243.344 153.805 248.266 156.937 248.266 156.937C248.266 156.937 245.581 156.49 238.869 157.385C232.604 157.832 220.074 155.595 220.074 155.595Z" fill="#CC5268"/>
<path style="mix-blend-mode:multiply" opacity="0.6" d="M211.125 156.937C211.125 156.937 212.914 152.462 216.942 151.567C216.942 151.567 217.837 152.91 217.837 153.805C217.837 153.805 214.257 154.252 211.125 156.937Z" fill="url(#paint59_linear_404_11012)"/>
<path d="M142.657 146.645C142.657 146.645 128.338 136.352 113.123 139.932C98.3558 143.96 106.858 173.942 127.443 182.891C148.027 192.289 156.082 179.759 156.082 174.389C156.082 169.019 142.657 146.645 142.657 146.645Z" fill="url(#paint60_linear_404_11012)"/>
<path style="mix-blend-mode:multiply" opacity="0.6" d="M146.684 160.517C146.684 160.517 133.707 149.777 122.52 151.567C111.332 152.91 117.597 171.257 117.597 171.257C117.597 171.257 118.045 168.572 122.072 168.124C122.072 168.124 128.337 174.837 139.524 177.969C139.524 177.969 125.652 171.257 123.862 164.992C123.862 164.992 133.707 176.627 142.657 173.942C151.607 171.257 146.684 160.517 146.684 160.517Z" fill="url(#paint61_linear_404_11012)"/>
<path d="M147.581 169.466C147.581 169.466 135.947 170.809 131.919 165.886C128.339 161.411 131.472 156.489 131.472 156.489C131.472 156.489 140.869 156.489 145.344 161.859C145.344 161.859 148.029 165.439 147.581 169.466Z" fill="#CC5268"/>
<defs>
<linearGradient id="paint0_linear_404_11012" x1="302.412" y1="384.263" x2="293.91" y2="326.089" gradientUnits="userSpaceOnUse">
<stop offset="0.016" stop-color="#FFAE78"/>
<stop offset="1" stop-color="#FF957C"/>
</linearGradient>
<linearGradient id="paint1_linear_404_11012" x1="314.942" y1="360.993" x2="311.81" y2="337.723" gradientUnits="userSpaceOnUse">
<stop offset="0.011" stop-color="#BE6888"/>
<stop offset="1" stop-color="#C981BA"/>
</linearGradient>
<linearGradient id="paint2_linear_404_11012" x1="323.443" y1="367.706" x2="320.311" y2="348.016" gradientUnits="userSpaceOnUse">
<stop offset="0.016" stop-color="#F0C2D6"/>
<stop offset="0.994" stop-color="#BD89C4"/>
</linearGradient>
<linearGradient id="paint3_linear_404_11012" x1="336.422" y1="372.628" x2="334.632" y2="358.756" gradientUnits="userSpaceOnUse">
<stop offset="0.016" stop-color="#F0C2D6"/>
<stop offset="0.994" stop-color="#BD89C4"/>
</linearGradient>
<linearGradient id="paint4_linear_404_11012" x1="267.955" y1="365.468" x2="263.48" y2="335.933" gradientUnits="userSpaceOnUse">
<stop offset="0.016" stop-color="#F0C2D6"/>
<stop offset="0.994" stop-color="#BD89C4"/>
</linearGradient>
<linearGradient id="paint5_linear_404_11012" x1="82.2456" y1="424.089" x2="135.05" y2="424.089" gradientUnits="userSpaceOnUse">
<stop offset="0.011" stop-color="#63517C"/>
<stop offset="1" stop-color="#8E72B3"/>
</linearGradient>
<linearGradient id="paint6_linear_404_11012" x1="120.283" y1="282.235" x2="120.283" y2="250.463" gradientUnits="userSpaceOnUse">
<stop stop-color="#FFB79E"/>
<stop offset="1" stop-color="#FFE9B7"/>
</linearGradient>
<linearGradient id="paint7_linear_404_11012" x1="210.229" y1="45.5116" x2="210.229" y2="-0.132534" gradientUnits="userSpaceOnUse">
<stop offset="0.006" stop-color="#6F2E45"/>
<stop offset="1" stop-color="#923E42"/>
</linearGradient>
<linearGradient id="paint8_linear_404_11012" x1="207.544" y1="0.762451" x2="255.873" y2="0.762451" gradientUnits="userSpaceOnUse">
<stop offset="0.016" stop-color="#F0C2D6"/>
<stop offset="0.994" stop-color="#BD89C4"/>
</linearGradient>
<linearGradient id="paint9_linear_404_11012" x1="11.0949" y1="173.942" x2="1.69756" y2="105.476" gradientUnits="userSpaceOnUse">
<stop stop-color="#D6023E"/>
<stop offset="0.994" stop-color="#FF432C"/>
</linearGradient>
<linearGradient id="paint10_linear_404_11012" x1="-4.56694" y1="375.761" x2="-4.56694" y2="306.399" gradientUnits="userSpaceOnUse">
<stop offset="0.016" stop-color="#FFAE78"/>
<stop offset="1" stop-color="#FF957C"/>
</linearGradient>
<linearGradient id="paint11_linear_404_11012" x1="41.9724" y1="341.75" x2="41.9724" y2="327.878" gradientUnits="userSpaceOnUse">
<stop offset="0.016" stop-color="#F0C2D6"/>
<stop offset="0.994" stop-color="#BD89C4"/>
</linearGradient>
<linearGradient id="paint12_linear_404_11012" x1="169.507" y1="218.691" x2="169.507" y2="183.34" gradientUnits="userSpaceOnUse">
<stop offset="0.021" stop-color="#FF8359"/>
<stop offset="1" stop-color="#FF8B7C"/>
</linearGradient>
<linearGradient id="paint13_linear_404_11012" x1="182.485" y1="206.609" x2="182.485" y2="186.471" gradientUnits="userSpaceOnUse">
<stop offset="0.016" stop-color="#F0C2D6"/>
<stop offset="0.994" stop-color="#BD89C4"/>
</linearGradient>
<linearGradient id="paint14_linear_404_11012" x1="156.082" y1="264.335" x2="156.082" y2="206.609" gradientUnits="userSpaceOnUse">
<stop offset="0.011" stop-color="#BE6888"/>
<stop offset="1" stop-color="#C981BA"/>
</linearGradient>
<linearGradient id="paint15_linear_404_11012" x1="99.6987" y1="193.184" x2="99.6987" y2="23.5848" gradientUnits="userSpaceOnUse">
<stop offset="0.016" stop-color="#FFAE78"/>
<stop offset="1" stop-color="#FF957C"/>
</linearGradient>
<linearGradient id="paint16_linear_404_11012" x1="170.401" y1="356.071" x2="170.401" y2="228.983" gradientUnits="userSpaceOnUse">
<stop offset="0.011" stop-color="#BE6888"/>
<stop offset="1" stop-color="#C981BA"/>
</linearGradient>
<linearGradient id="paint17_linear_404_11012" x1="103.279" y1="181.102" x2="103.279" y2="23.5848" gradientUnits="userSpaceOnUse">
<stop offset="0.016" stop-color="#F0C2D6"/>
<stop offset="0.994" stop-color="#BD89C4"/>
</linearGradient>
<linearGradient id="paint18_linear_404_11012" x1="34.3648" y1="335.038" x2="34.3648" y2="209.741" gradientUnits="userSpaceOnUse">
<stop offset="0.011" stop-color="#BE6888"/>
<stop offset="1" stop-color="#C981BA"/>
</linearGradient>
<linearGradient id="paint19_linear_404_11012" x1="128.339" y1="147.987" x2="128.339" y2="16.4245" gradientUnits="userSpaceOnUse">
<stop offset="0.006" stop-color="#6F2E45"/>
<stop offset="1" stop-color="#923E42"/>
</linearGradient>
<linearGradient id="paint20_linear_404_11012" x1="55.3969" y1="98.3159" x2="55.3969" y2="42.3794" gradientUnits="userSpaceOnUse">
<stop offset="0.006" stop-color="#F20044"/>
<stop offset="1" stop-color="#D90E27"/>
</linearGradient>
<linearGradient id="paint21_linear_404_11012" x1="114.913" y1="113.083" x2="114.913" y2="28.507" gradientUnits="userSpaceOnUse">
<stop offset="0.006" stop-color="#6F2E45"/>
<stop offset="0.989" stop-color="#A6453D"/>
</linearGradient>
<linearGradient id="paint22_linear_404_11012" x1="199.042" y1="92.0512" x2="199.042" y2="28.5073" gradientUnits="userSpaceOnUse">
<stop offset="0.006" stop-color="#6F2E45"/>
<stop offset="0.989" stop-color="#A6453D"/>
</linearGradient>
<linearGradient id="paint23_linear_404_11012" x1="129.112" y1="351.445" x2="129.112" y2="190.49" gradientUnits="userSpaceOnUse">
<stop stop-color="#FFB79E"/>
<stop offset="1" stop-color="#FFC4B7"/>
</linearGradient>
<linearGradient id="paint24_linear_404_11012" x1="134.604" y1="249.567" x2="134.604" y2="193.184" gradientUnits="userSpaceOnUse">
<stop stop-color="#FFECE5"/>
<stop offset="1" stop-color="#FFF6E2"/>
</linearGradient>
<linearGradient id="paint25_linear_404_11012" x1="102.831" y1="24.0327" x2="195.462" y2="24.0327" gradientUnits="userSpaceOnUse">
<stop offset="0.016" stop-color="#F0C2D6"/>
<stop offset="0.994" stop-color="#BD89C4"/>
</linearGradient>
<linearGradient id="paint26_linear_404_11012" x1="81.3513" y1="138.59" x2="72.4015" y2="96.5262" gradientUnits="userSpaceOnUse">
<stop stop-color="#D6023E"/>
<stop offset="0.994" stop-color="#FF432C"/>
</linearGradient>
<linearGradient id="paint27_linear_404_11012" x1="58.9776" y1="98.3162" x2="58.9776" y2="37.0099" gradientUnits="userSpaceOnUse">
<stop offset="0.006" stop-color="#6F2E45"/>
<stop offset="1" stop-color="#923E42"/>
</linearGradient>
<linearGradient id="paint28_linear_404_11012" x1="165.929" y1="103.686" x2="165.929" y2="72.8091" gradientUnits="userSpaceOnUse">
<stop offset="0.006" stop-color="#6F2E45"/>
<stop offset="1" stop-color="#923E42"/>
</linearGradient>
<linearGradient id="paint29_linear_404_11012" x1="236.185" y1="88.4708" x2="236.185" y2="66.5437" gradientUnits="userSpaceOnUse">
<stop offset="0.006" stop-color="#6F2E45"/>
<stop offset="1" stop-color="#923E42"/>
</linearGradient>
<linearGradient id="paint30_linear_404_11012" x1="159.661" y1="151.567" x2="159.661" y2="104.581" gradientUnits="userSpaceOnUse">
<stop stop-color="white"/>
<stop offset="1" stop-color="#D0C7F8"/>
</linearGradient>
<linearGradient id="paint31_linear_404_11012" x1="208.888" y1="139.484" x2="208.888" y2="97.8673" gradientUnits="userSpaceOnUse">
<stop stop-color="white"/>
<stop offset="1" stop-color="#D0C7F8"/>
</linearGradient>
<linearGradient id="paint32_linear_404_11012" x1="164.138" y1="138.59" x2="178.01" y2="110.845" gradientUnits="userSpaceOnUse">
<stop offset="0.006" stop-color="#C2862E"/>
<stop offset="0.983" stop-color="#74422F"/>
</linearGradient>
<linearGradient id="paint33_linear_404_11012" x1="231.709" y1="139.485" x2="231.709" y2="114.426" gradientUnits="userSpaceOnUse">
<stop offset="0.006" stop-color="#C2862E"/>
<stop offset="0.983" stop-color="#74422F"/>
</linearGradient>
<linearGradient id="paint34_linear_404_11012" x1="212.466" y1="163.202" x2="237.525" y2="163.202" gradientUnits="userSpaceOnUse">
<stop stop-color="#CF6074"/>
<stop offset="1" stop-color="#E04A60"/>
</linearGradient>
<linearGradient id="paint35_linear_404_11012" x1="37.9456" y1="97.4208" x2="37.9456" y2="37.0094" gradientUnits="userSpaceOnUse">
<stop offset="0.006" stop-color="#6F2E45"/>
<stop offset="0.989" stop-color="#A6453D"/>
</linearGradient>
<linearGradient id="paint36_linear_404_11012" x1="66.5831" y1="88.0229" x2="66.5831" y2="44.1687" gradientUnits="userSpaceOnUse">
<stop offset="0.006" stop-color="#8B4156"/>
<stop offset="0.989" stop-color="#BF543D"/>
</linearGradient>
<linearGradient id="paint37_linear_404_11012" x1="80.0078" y1="39.2471" x2="122.967" y2="39.2471" gradientUnits="userSpaceOnUse">
<stop offset="0.016" stop-color="#F0C2D6"/>
<stop offset="0.994" stop-color="#BD89C4"/>
</linearGradient>
<linearGradient id="paint38_linear_404_11012" x1="207.544" y1="32.5347" x2="263.033" y2="32.5347" gradientUnits="userSpaceOnUse">
<stop offset="0.016" stop-color="#F0C2D6"/>
<stop offset="0.994" stop-color="#BD89C4"/>
</linearGradient>
<linearGradient id="paint39_linear_404_11012" x1="192.778" y1="20.4514" x2="233.052" y2="20.4514" gradientUnits="userSpaceOnUse">
<stop offset="0.016" stop-color="#F0C2D6"/>
<stop offset="0.994" stop-color="#BD89C4"/>
</linearGradient>
<linearGradient id="paint40_linear_404_11012" x1="131.471" y1="95.6305" x2="131.471" y2="28.0592" gradientUnits="userSpaceOnUse">
<stop offset="0.006" stop-color="#8B4156"/>
<stop offset="0.989" stop-color="#BF543D"/>
</linearGradient>
<linearGradient id="paint41_linear_404_11012" x1="119.836" y1="266.573" x2="119.836" y2="241.513" gradientUnits="userSpaceOnUse">
<stop offset="0.011" stop-color="#BE6888"/>
<stop offset="1" stop-color="#C981BA"/>
</linearGradient>
<linearGradient id="paint42_linear_404_11012" x1="137.736" y1="251.358" x2="137.736" y2="194.974" gradientUnits="userSpaceOnUse">
<stop stop-color="#FFECE5"/>
<stop offset="1" stop-color="#FFF6E2"/>
</linearGradient>
<linearGradient id="paint43_linear_404_11012" x1="-32.3082" y1="310.874" x2="-32.3082" y2="249.567" gradientUnits="userSpaceOnUse">
<stop offset="0.016" stop-color="#F0C2D6"/>
<stop offset="0.994" stop-color="#BD89C4"/>
</linearGradient>
<linearGradient id="paint44_linear_404_11012" x1="43.7621" y1="335.038" x2="43.7621" y2="316.244" gradientUnits="userSpaceOnUse">
<stop offset="0.011" stop-color="#BE6888"/>
<stop offset="1" stop-color="#C981BA"/>
</linearGradient>
<linearGradient id="paint45_linear_404_11012" x1="193.226" y1="282.234" x2="193.226" y2="276.417" gradientUnits="userSpaceOnUse">
<stop offset="0.016" stop-color="#F0C2D6"/>
<stop offset="0.994" stop-color="#BD89C4"/>
</linearGradient>
<linearGradient id="paint46_linear_404_11012" x1="274.219" y1="352.938" x2="274.219" y2="325.641" gradientUnits="userSpaceOnUse">
<stop offset="0.011" stop-color="#BE6888"/>
<stop offset="1" stop-color="#C981BA"/>
</linearGradient>
<linearGradient id="paint47_linear_404_11012" x1="-168.797" y1="431.697" x2="-168.797" y2="199.896" gradientUnits="userSpaceOnUse">
<stop offset="0.016" stop-color="#F0C2D6"/>
<stop offset="0.994" stop-color="#BD89C4"/>
</linearGradient>
<linearGradient id="paint48_linear_404_11012" x1="93.4323" y1="444.227" x2="93.4323" y2="335.039" gradientUnits="userSpaceOnUse">
<stop offset="0.016" stop-color="#F0C2D6"/>
<stop offset="0.994" stop-color="#BD89C4"/>
</linearGradient>
<linearGradient id="paint49_linear_404_11012" x1="137.287" y1="449.596" x2="137.287" y2="417.377" gradientUnits="userSpaceOnUse">
<stop offset="0.016" stop-color="#F0C2D6"/>
<stop offset="0.994" stop-color="#BD89C4"/>
</linearGradient>
<linearGradient id="paint50_linear_404_11012" x1="156.083" y1="326.089" x2="156.083" y2="276.417" gradientUnits="userSpaceOnUse">
<stop offset="0.006" stop-color="#BD89C4"/>
<stop offset="0.984" stop-color="#F0C2D6"/>
</linearGradient>
<linearGradient id="paint51_linear_404_11012" x1="53.1606" y1="449.149" x2="53.1606" y2="357.414" gradientUnits="userSpaceOnUse">
<stop offset="0.016" stop-color="#F0C2D6"/>
<stop offset="0.994" stop-color="#BD89C4"/>
</linearGradient>
<linearGradient id="paint52_linear_404_11012" x1="7.9628" y1="431.697" x2="7.9628" y2="389.632" gradientUnits="userSpaceOnUse">
<stop offset="0.011" stop-color="#63517C"/>
<stop offset="1" stop-color="#8E72B3"/>
</linearGradient>
<linearGradient id="paint53_linear_404_11012" x1="148.924" y1="602.191" x2="216.495" y2="602.191" gradientUnits="userSpaceOnUse">
<stop stop-color="#FF636D"/>
<stop offset="0.989" stop-color="#FF9A00"/>
</linearGradient>
<linearGradient id="paint54_linear_404_11012" x1="75.0874" y1="602.191" x2="132.366" y2="602.191" gradientUnits="userSpaceOnUse">
<stop offset="0.011" stop-color="#FF9A00"/>
<stop offset="1" stop-color="#FF636D"/>
</linearGradient>
<linearGradient id="paint55_linear_404_11012" x1="4.82955" y1="360.098" x2="4.82955" y2="350.701" gradientUnits="userSpaceOnUse">
<stop offset="0.011" stop-color="#BE6888"/>
<stop offset="1" stop-color="#C981BA"/>
</linearGradient>
<linearGradient id="paint56_linear_404_11012" x1="4.38323" y1="375.76" x2="4.38323" y2="352.043" gradientUnits="userSpaceOnUse">
<stop offset="0.011" stop-color="#BE6888"/>
<stop offset="1" stop-color="#C981BA"/>
</linearGradient>
<linearGradient id="paint57_linear_404_11012" x1="-3.22463" y1="371.733" x2="-3.22463" y2="349.358" gradientUnits="userSpaceOnUse">
<stop offset="0.016" stop-color="#F0C2D6"/>
<stop offset="0.994" stop-color="#BD89C4"/>
</linearGradient>
<linearGradient id="paint58_linear_404_11012" x1="17.3614" y1="366.811" x2="17.3614" y2="355.176" gradientUnits="userSpaceOnUse">
<stop offset="0.016" stop-color="#F0C2D6"/>
<stop offset="0.994" stop-color="#BD89C4"/>
</linearGradient>
<linearGradient id="paint59_linear_404_11012" x1="212.914" y1="156.937" x2="212.467" y2="152.015" gradientUnits="userSpaceOnUse">
<stop offset="0.006" stop-color="#BD89C4"/>
<stop offset="0.984" stop-color="#F0C2D6"/>
</linearGradient>
<linearGradient id="paint60_linear_404_11012" x1="156.53" y1="185.129" x2="153.397" y2="136.8" gradientUnits="userSpaceOnUse">
<stop offset="0.021" stop-color="#FF8359"/>
<stop offset="1" stop-color="#FF8B7C"/>
</linearGradient>
<linearGradient id="paint61_linear_404_11012" x1="146.684" y1="149.777" x2="115.36" y2="152.015" gradientUnits="userSpaceOnUse">
<stop offset="0.006" stop-color="#B060F4"/>
<stop offset="1" stop-color="#FFEADB"/>
</linearGradient>
</defs>
</svg>
