<svg width="1052" height="654" viewBox="0 0 1052 654" fill="none" xmlns="http://www.w3.org/2000/svg">
<path style="mix-blend-mode:multiply" opacity="0.5" d="M1051.94 618.772C1051.94 632.807 855.007 653.971 537.108 653.971C257.972 653.971 0 625.678 0 618.772C0 612.98 257.972 602.956 537.108 602.956C816.021 602.956 1051.94 612.98 1051.94 618.772Z" fill="url(#paint0_linear_404_11003)"/>
<path d="M45.6685 609.416C45.6685 609.416 41.213 614.985 41.4358 621.223C41.4358 621.223 356.661 645.728 478.073 644.837C478.073 644.837 599.262 627.015 646.267 631.025C693.05 634.812 754.536 643.277 770.13 644.837C785.501 646.396 961.715 646.396 1007.83 618.772L1004.49 609.416H45.6685Z" fill="url(#paint1_linear_404_11003)"/>
<path d="M1004.49 609.416C1004.93 618.55 958.597 630.579 858.571 637.04C835.848 638.599 814.685 638.822 794.635 638.154C726.689 636.149 674.337 624.342 636.466 622.782C587.455 620.777 500.796 632.584 479.187 635.48C457.355 638.599 30.52 620.109 45.6687 609.416C57.9213 600.728 333.716 587.361 530.425 587.361C535.623 587.361 540.895 587.361 546.242 587.361H546.688C742.06 588.03 1003.82 600.505 1004.49 609.416Z" fill="#5E239D"/>
<path d="M847.878 606.52C847.878 611.867 758.1 611.421 633.124 612.981C601.267 613.426 567.405 618.773 531.984 618.773C357.329 618.773 215.868 613.203 215.868 606.52C215.868 599.837 357.329 589.812 531.984 589.812C706.416 589.812 847.878 599.837 847.878 606.52Z" fill="url(#paint2_linear_404_11003)"/>
<path d="M727.358 603.847C727.358 607.857 636.466 607.857 517.95 611.421C402.33 614.763 308.765 607.857 308.765 603.847C308.765 599.614 402.33 593.599 517.95 593.599C633.57 593.599 727.358 599.614 727.358 603.847Z" fill="#5E239D"/>
<g style="mix-blend-mode:soft-light">
<path d="M186.016 624.119C186.016 624.119 431.29 630.802 474.954 627.461C518.618 624.119 549.138 610.753 572.306 609.416C595.252 608.302 659.411 624.565 659.411 624.565C659.411 624.565 610.623 620.555 559.385 626.124C508.147 631.693 482.306 638.599 482.306 638.599C482.306 638.599 251.066 632.807 186.016 624.119Z" fill="#FFF8FF"/>
</g>
<g style="mix-blend-mode:multiply" opacity="0.2">
<path d="M794.635 638.154C794.635 638.154 738.941 632.584 709.758 625.678C680.352 618.772 605.945 612.98 605.945 612.98L659.411 624.564C659.411 624.564 773.694 640.381 794.635 638.154Z" fill="#79596A"/>
</g>
<path d="M361.229 330.116C361.229 330.116 363.914 331.459 365.257 331.011C367.047 330.564 374.207 322.509 379.129 321.614C384.051 320.271 389.421 323.404 393.896 323.851C397.924 323.851 403.293 321.614 404.636 322.061C405.978 322.509 406.873 325.641 405.531 327.879C404.189 330.564 398.819 335.039 388.974 331.906L385.841 334.591C385.841 334.591 394.344 341.304 400.609 345.331C406.426 349.358 410.453 354.728 410.453 354.728C410.453 354.728 410.901 359.203 406.873 360.098L391.659 351.596L390.764 352.938C390.764 352.938 402.846 360.098 407.321 366.363C407.321 366.363 407.321 369.048 403.294 370.838V372.628C403.294 372.628 401.951 375.313 398.819 375.76C398.819 375.76 389.421 371.285 383.156 365.468L382.261 365.915C382.261 365.915 388.526 372.628 391.211 377.55C391.211 377.55 389.421 379.788 387.184 379.34C384.946 378.893 372.417 367.706 372.417 367.706C372.417 367.706 362.572 363.678 354.964 353.386L361.229 330.116Z" fill="url(#paint3_linear_404_11003)"/>
<path style="mix-blend-mode:multiply" opacity="0.3" d="M385.842 334.591C385.842 334.591 378.682 341.303 371.075 343.988C371.075 343.988 367.047 349.358 367.942 353.386C368.837 357.413 371.522 360.545 371.522 360.545C371.522 360.545 384.947 351.148 388.527 336.381L385.842 334.591Z" fill="url(#paint4_linear_404_11003)"/>
<path style="mix-blend-mode:multiply" opacity="0.9" d="M393.001 345.332C393.001 345.332 388.526 359.651 377.338 367.706C377.338 367.706 384.946 366.811 388.973 357.861C392.553 349.359 393.001 345.332 393.001 345.332Z" fill="url(#paint5_linear_404_11003)"/>
<path style="mix-blend-mode:multiply" opacity="0.9" d="M388.079 359.651L403.294 370.838C403.294 370.838 389.421 360.546 388.526 358.756L388.079 359.651Z" fill="url(#paint6_linear_404_11003)"/>
<path style="mix-blend-mode:multiply" opacity="0.9" d="M359.887 359.65C359.887 359.65 364.362 339.513 362.572 329.221L354.964 353.833L359.887 359.65Z" fill="url(#paint7_linear_404_11003)"/>
<path d="M269.494 609.351L202.37 608.008C202.37 608.008 202.37 605.771 201.923 602.191C201.475 596.821 201.475 587.871 203.713 578.921C203.713 578.921 203.265 577.579 202.37 575.342C201.028 572.209 198.79 566.839 197 560.574C194.315 553.414 191.63 545.36 189.84 536.857C188.945 531.935 188.05 527.012 187.603 522.537C187.603 521.642 187.603 520.748 187.603 519.853C187.603 516.571 187.752 513.439 188.05 510.455C188.498 502.4 189.84 496.583 191.183 491.213C192.973 485.843 194.315 481.816 195.658 477.788C196.553 473.761 193.42 453.624 190.288 433.487C189.691 430.802 189.244 428.117 188.945 425.432C185.365 407.085 182.233 390.975 182.233 390.975C182.233 390.975 184.47 390.528 188.498 390.08C199.685 388.738 222.955 386.052 235.932 386.052C235.932 386.052 240.407 410.665 239.512 442.884C239.512 447.061 239.363 451.386 239.064 455.861C238.617 464.811 237.722 474.656 235.932 484.053C235.932 484.053 231.905 491.661 229.667 494.793C229.667 494.793 229.518 495.091 229.22 495.688C229.22 498.373 228.325 504.638 227.43 513.14C226.982 517.168 226.535 522.09 226.535 527.012C226.236 531.487 226.236 535.962 226.535 540.437C226.535 546.255 226.982 551.624 227.877 556.994C228.175 559.978 228.623 562.812 229.22 565.497C229.22 565.795 229.369 566.243 229.667 566.839C229.667 566.839 231.905 566.392 232.799 566.839C234.142 567.287 232.799 572.209 232.799 572.209H233.247C233.247 572.657 235.037 574.447 237.274 576.684V577.132C240.407 579.816 244.434 583.396 248.462 585.634C249.357 586.23 250.401 586.678 251.594 586.976C254.279 588.319 256.964 589.661 259.201 590.109C262.781 591.451 265.914 592.346 265.914 592.346C265.914 592.346 269.941 599.506 269.494 609.351Z" fill="#5E239D"/>
<path d="M188.947 425.432C188.499 433.039 188.052 440.647 187.604 447.359C187.604 450.342 187.455 453.027 187.157 455.414C186.709 461.231 186.262 466.601 185.814 469.734C185.516 472.419 184.919 474.954 184.024 477.341C182.234 482.263 180.444 486.291 179.549 488.528C179.251 489.125 178.953 490.318 178.654 492.108C177.759 496.136 176.864 501.953 175.969 508.665C175.074 512.693 174.627 517.168 174.627 521.195C174.179 526.118 173.732 531.04 174.179 534.62C174.179 535.515 174.179 536.41 174.179 537.305C174.627 541.78 175.522 547.15 176.864 552.967C177.759 558.337 179.102 564.154 180.444 569.077C181.787 574.447 182.682 578.474 183.577 581.607C185.814 590.556 185.367 610.246 185.367 610.246C165.677 612.483 128.088 611.589 128.088 611.589C127.64 603.534 130.773 597.716 130.773 597.716C141.96 590.556 153.595 577.579 153.595 577.579C153.595 577.579 148.225 576.237 148.672 575.342C149.12 573.999 151.805 572.209 151.805 572.209C151.805 572.209 148.672 567.287 145.092 558.784C142.855 552.967 140.17 545.807 137.933 537.305C137.336 534.62 136.888 532.084 136.59 529.697C135.993 526.118 135.695 522.538 135.695 518.958C135.248 511.798 136.59 505.085 137.933 499.268C138.827 493.898 140.17 488.528 141.065 484.053C141.96 479.578 142.407 475.551 141.96 471.524C141.065 465.259 137.932 445.122 135.248 424.089C131.668 399.03 128.983 372.18 132.115 364.126C132.115 364.126 146.435 362.783 157.622 367.258C168.362 371.733 188.052 389.633 188.499 390.08C189.394 394.555 189.394 409.77 188.947 425.432Z" fill="#5E239D"/>
<g style="mix-blend-mode:soft-light">
<path d="M174.177 534.62C174.177 535.515 174.177 536.41 174.177 537.305C149.118 543.123 137.931 537.305 137.931 537.305C137.334 534.62 136.886 532.085 136.588 529.698C135.991 526.118 135.544 522.538 135.246 518.958C154.488 526.566 168.807 522.986 174.625 521.196C174.177 526.118 173.73 531.041 174.177 534.62Z" fill="#5E239D"/>
</g>
<g style="mix-blend-mode:soft-light">
<path d="M180.444 569.077C175.521 570.866 162.544 574.894 151.804 572.209C151.804 572.209 148.672 567.286 145.092 558.784C152.252 559.679 164.334 559.679 176.864 552.967C177.759 558.337 179.101 564.154 180.444 569.077Z" fill="#5E239D"/>
</g>
<g style="mix-blend-mode:soft-light">
<path d="M178.653 492.108C177.758 496.136 176.863 501.953 175.968 508.666C154.488 508.218 142.406 501.953 137.931 499.268C138.826 493.898 140.169 488.528 141.064 484.053C152.251 492.556 170.598 492.556 178.653 492.108Z" fill="#5E239D"/>
</g>
<g style="mix-blend-mode:soft-light">
<path d="M229.22 495.688C229.22 498.373 228.325 504.638 227.43 513.14C219.822 514.482 205.502 515.825 188.05 510.455C188.498 502.4 189.84 496.583 191.183 491.213C196.105 493.003 210.425 497.03 229.22 495.688Z" fill="#5E239D"/>
</g>
<g style="mix-blend-mode:soft-light">
<path d="M226.534 540.437C219.374 541.332 203.264 542.227 189.84 536.857C188.945 531.934 188.05 527.012 187.602 522.537C192.524 524.775 205.502 529.697 226.534 527.012C226.236 531.487 226.236 535.962 226.534 540.437Z" fill="#5E239D"/>
</g>
<g style="mix-blend-mode:soft-light">
<path d="M229.22 565.497C222.955 566.84 210.425 570.42 202.37 575.342C201.028 572.21 198.79 566.84 197 560.575C202.37 560.575 214.9 560.127 227.877 556.995C228.176 559.978 228.623 562.812 229.22 565.497Z" fill="#5E239D"/>
</g>
<g style="mix-blend-mode:multiply" opacity="0.5">
<path d="M259.201 590.109V608.009L201.922 602.191C201.474 596.821 201.474 587.871 203.712 578.922C203.712 578.922 203.264 577.579 202.369 575.342C201.027 572.209 198.789 566.839 196.999 560.574C194.314 553.415 191.629 545.36 189.84 536.857C188.945 531.935 188.05 527.013 187.602 522.538C187.602 521.643 187.602 520.748 187.602 519.853C187.602 516.571 187.751 513.439 188.05 510.455C188.497 502.401 189.84 496.583 191.182 491.213C192.972 485.843 194.314 481.816 195.657 477.788C196.552 473.761 193.419 453.624 190.287 433.487L239.511 442.884C239.511 447.061 239.362 451.386 239.064 455.861C239.064 455.861 219.821 460.784 207.292 471.076C207.292 471.076 215.794 488.528 235.931 484.053C235.931 484.053 231.904 491.661 229.666 494.793C229.666 494.793 229.517 495.091 229.219 495.688C229.219 498.373 228.324 504.638 227.429 513.14C226.981 517.168 226.534 522.09 226.534 527.013C226.236 531.487 226.236 535.962 226.534 540.437C226.534 546.255 226.981 551.625 227.876 556.995C228.175 559.978 228.622 562.812 229.219 565.497C229.219 565.795 229.368 566.243 229.666 566.839C229.666 566.839 219.822 569.972 213.109 576.684C213.557 576.684 223.849 571.762 232.799 572.209H233.246C233.246 572.657 235.036 574.447 237.274 576.684V577.132C240.406 579.817 244.434 583.397 248.461 585.634C249.356 586.231 250.4 586.678 251.593 586.977C254.278 588.319 256.963 589.661 259.201 590.109Z" fill="#5E239D"/>
</g>
<g style="mix-blend-mode:multiply" opacity="0.5">
<path d="M187.602 438.409V455.414C187.602 455.414 187.453 455.414 187.155 455.414C184.022 454.071 167.018 447.359 150.908 455.414C150.908 455.414 153.593 466.601 158.068 472.866C162.99 478.683 184.022 477.341 184.022 477.341C182.232 482.263 180.442 486.291 179.547 488.528C179.249 489.125 178.951 490.318 178.652 492.108C177.757 496.135 176.862 501.953 175.967 508.665C175.072 512.693 174.625 517.167 174.625 521.195C174.177 526.117 173.73 531.04 174.177 534.62C174.177 535.515 174.177 536.41 174.177 537.305C174.625 541.78 175.52 547.149 176.862 552.967C177.757 558.337 179.1 564.154 180.442 569.077C181.785 574.446 182.68 578.474 183.575 581.606L174.625 594.583H162.99C162.99 594.583 158.963 579.369 153.593 577.579L147.328 577.131L148.67 575.341C148.67 575.341 159.858 577.579 171.492 578.026C171.492 578.026 155.383 573.551 151.803 572.209C151.803 572.209 148.67 567.286 145.09 558.784C142.853 552.967 140.168 545.807 137.931 537.305C137.334 534.62 136.886 532.084 136.588 529.697C135.991 526.117 135.544 522.537 135.246 518.957C135.246 511.798 136.588 505.085 137.931 499.268C138.826 493.898 140.168 488.528 141.063 484.053C141.958 479.578 142.405 475.551 141.958 471.523C141.063 465.258 137.931 445.121 135.246 424.089L187.602 438.409Z" fill="#5E239D"/>
</g>
<path d="M185.366 610.247C185.366 610.247 149.119 613.379 128.087 611.589C128.087 611.589 127.192 603.982 130.772 597.717C130.772 597.717 133.457 595.48 137.485 592.347C138.827 593.242 141.512 594.137 146.882 594.585C156.727 595.032 170.151 589.215 170.151 589.215C170.151 589.215 162.544 583.397 147.777 582.95C150.014 581.16 152.252 578.923 153.594 577.58C153.594 577.58 167.914 577.58 176.416 584.74L182.234 577.133C182.234 577.133 187.156 590.11 185.366 610.247Z" fill="#F5B822"/>
<path d="M269.494 609.351L202.37 608.009C202.37 608.009 200.132 593.242 203.712 578.922L212.662 583.844C212.662 583.844 223.402 573.552 232.799 572.209H233.247L237.274 576.684V577.132C237.274 577.132 232.799 580.712 230.562 586.082C230.562 586.082 241.302 589.214 251.594 586.977C258.306 590.557 265.914 592.347 265.914 592.347C265.914 592.347 269.941 599.507 269.494 609.351Z" fill="#F5B822"/>
<g style="mix-blend-mode:multiply" opacity="0.8">
<path d="M195.658 473.76C195.658 473.76 220.27 456.756 239.065 455.861V449.148L192.525 446.463L195.658 473.76Z" fill="#5E239D"/>
</g>
<path style="mix-blend-mode:multiply" opacity="0.8" d="M139.721 457.204C139.721 457.204 170.597 445.569 187.155 455.414L188.05 442.884L135.246 424.089L139.721 457.204Z" fill="url(#paint8_linear_404_11003)"/>
<path d="M189.393 270.153V282.235L209.082 272.39V250.463L189.393 270.153Z" fill="url(#paint9_linear_404_11003)"/>
<path d="M306.188 45.5116L271.284 23.5846L260.544 16.4247C260.544 16.4247 262.781 13.7397 265.914 10.6073C272.179 4.78986 282.023 -2.36999 290.526 0.76245C303.503 5.68486 303.951 23.5846 303.951 23.5846C303.951 23.5846 307.978 24.4795 308.425 30.2969C309.32 33.8769 308.425 38.3518 306.188 45.5116Z" fill="url(#paint10_linear_404_11003)"/>
<path style="mix-blend-mode:multiply" opacity="0.6" d="M306.188 45.5116L271.284 23.5846L260.544 16.4247C260.544 16.4247 262.781 13.7397 265.914 10.6073C265.914 10.6073 283.366 16.4246 290.526 28.5069C290.526 28.5069 298.581 7.02734 290.526 0.762451C303.503 5.68486 303.951 23.5846 303.951 23.5846C303.951 23.5846 303.951 32.0869 299.476 38.3518C299.476 38.3518 307.53 38.7993 308.425 30.2969C309.32 33.8769 308.425 38.3518 306.188 45.5116Z" fill="url(#paint11_linear_404_11003)"/>
<path d="M148.223 162.754C148.223 162.754 163.438 139.485 157.621 91.6033L151.356 92.4982C151.356 92.4982 130.771 134.115 148.223 162.754Z" fill="#9A292C"/>
<path d="M148.671 94.2885C148.671 94.2885 128.981 134.563 132.114 150.672C132.114 150.672 138.379 160.517 148.223 162.755C148.223 162.755 139.721 126.06 153.146 94.736L151.356 92.4985L148.671 94.2885Z" fill="url(#paint12_linear_404_11003)"/>
<path d="M109.292 336.381C109.292 336.381 115.557 343.094 115.109 348.464C115.109 353.386 108.844 358.756 107.054 363.231C105.265 367.706 104.37 373.523 103.475 374.418C103.027 374.866 97.6572 374.866 96.7622 369.496C95.4197 364.126 99.4471 359.651 100.342 357.413C101.237 355.176 100.342 351.596 100.342 351.596C100.342 351.596 90.9448 358.308 86.4699 362.783C81.995 367.258 73.4926 370.391 73.4926 370.391C73.4926 370.391 69.9127 374.866 66.7802 375.761C66.7802 375.761 63.2003 375.313 62.3053 371.733C62.3053 371.733 57.8304 371.733 56.9354 369.943C56.0404 368.153 59.1729 360.993 61.8579 356.519C61.8579 356.22 61.8579 356.071 61.8579 356.071C61.4104 356.519 57.8304 359.203 56.9354 360.098C56.0404 360.546 53.3555 358.756 53.3555 356.071C53.3555 356.071 60.0679 348.464 68.1227 342.199C76.1776 335.934 88.2599 329.669 90.0498 327.879C91.8398 326.089 100.79 306.399 100.79 306.399C100.79 306.399 110.634 317.587 118.242 322.062L109.292 336.381Z" fill="url(#paint13_linear_404_11003)"/>
<path style="mix-blend-mode:multiply" opacity="0.9" d="M90.0501 327.878C90.0501 327.878 87.8125 334.591 95.8674 339.961C103.922 345.33 109.292 336.381 109.292 336.381L90.0501 327.878Z" fill="url(#paint14_linear_404_11003)"/>
<path d="M229.219 183.34C229.219 183.34 230.114 190.947 226.981 199.449C226.981 199.449 240.406 220.929 251.146 218.691C262.333 216.901 257.411 201.239 257.411 201.239C257.411 201.239 256.068 192.737 257.411 186.919L229.219 183.34Z" fill="url(#paint15_linear_404_11003)"/>
<path style="mix-blend-mode:multiply" opacity="0.9" d="M228.772 193.184C228.772 193.184 234.59 203.476 244.435 206.161C254.727 209.293 256.964 197.659 256.964 197.659V192.736L229.22 186.471L228.772 193.184Z" fill="url(#paint16_linear_404_11003)"/>
<path style="mix-blend-mode:multiply" opacity="0.5" d="M256.964 264.335C256.964 264.335 260.096 255.833 259.649 245.541C259.649 235.248 252.936 224.956 252.936 224.956C252.936 224.956 244.881 246.883 233.694 251.358C222.954 256.28 215.794 239.723 215.794 239.723L222.507 209.741C222.507 209.741 245.329 222.718 252.936 218.244C260.544 213.769 263.676 206.609 263.676 206.609C263.676 206.609 270.388 242.408 265.019 264.335H256.964Z" fill="url(#paint17_linear_404_11003)"/>
<path d="M322.746 151.12C321.851 162.307 301.713 186.472 279.339 191.842C262.334 195.869 236.38 190.052 216.69 181.102C210.873 177.969 205.503 175.284 201.028 171.705C181.338 157.385 154.936 117.558 164.781 73.7039C164.781 73.7039 164.93 73.5547 165.228 73.2564C167.913 60.7266 174.178 50.4343 182.233 42.827C199.238 27.1648 225.64 22.2423 251.594 23.5848C290.974 25.8223 311.111 51.7768 313.348 70.1239C315.586 88.0236 310.663 119.348 313.348 126.508C313.647 127.105 313.796 127.701 313.796 128.298C316.928 135.01 323.641 140.38 322.746 151.12Z" fill="url(#paint18_linear_404_11003)"/>
<path style="mix-blend-mode:multiply" opacity="0.3" d="M358.991 326.537C358.991 326.537 357.201 348.464 347.804 352.939L343.777 351.149V351.596C343.329 352.044 338.854 358.756 322.745 355.176C306.187 351.596 286.05 328.326 280.68 308.189C275.31 288.5 274.415 270.153 274.415 270.153L269.94 269.705L274.863 228.983C274.863 228.983 278.443 247.778 284.26 266.573C290.078 284.92 310.662 299.239 331.247 303.267C331.247 303.267 304.397 301.03 284.26 279.997C284.708 281.34 299.028 322.509 314.242 332.801C330.352 343.541 347.357 335.934 347.357 335.934C347.357 335.934 340.197 344.436 328.114 344.884C328.114 344.884 331.694 349.806 337.959 350.701C343.777 351.149 356.754 338.171 358.096 325.642L358.991 326.537Z" fill="url(#paint19_linear_404_11003)"/>
<path style="mix-blend-mode:multiply" opacity="0.6" d="M309.768 140.38C304.846 141.723 301.713 139.485 301.713 139.485C299.923 135.905 293.211 135.01 289.184 126.955C285.604 118.901 287.394 104.581 290.526 91.6035C293.211 78.6263 304.398 74.5988 304.398 74.5988L308.426 66.544C292.764 44.1694 265.467 28.5072 242.197 45.5119C221.612 60.7266 216.69 96.526 216.69 96.526C233.247 79.9688 250.699 72.8089 250.699 72.8089C259.202 82.2062 267.704 120.243 265.019 135.905C264.572 141.275 256.964 151.567 239.065 153.357C220.717 155.147 201.028 134.115 201.028 134.115C200.58 157.385 216.69 181.102 216.69 181.102C210.873 177.969 205.503 175.284 201.028 171.705C181.338 157.385 154.936 117.558 164.781 73.7039C164.781 73.7039 164.93 73.5547 165.228 73.2564L182.233 42.827C199.238 27.1648 225.64 22.2423 251.594 23.5848C290.974 25.8223 311.111 51.7768 313.348 70.1239C315.586 88.0236 310.663 119.348 313.348 126.508C313.348 127.403 314.691 139.038 309.768 140.38Z" fill="url(#paint20_linear_404_11003)"/>
<path style="mix-blend-mode:multiply" opacity="0.3" d="M211.32 263.44L202.818 262.545C202.818 262.545 195.21 263.887 182.233 283.577C169.703 303.714 155.384 315.349 142.406 322.061C128.982 328.326 124.059 332.801 121.374 333.248C119.137 333.248 116.004 331.459 116.004 331.459L112.872 335.038C95.8672 331.906 94.9722 316.244 94.9722 316.244C94.9722 316.244 99.4471 325.641 103.922 327.431C107.949 329.669 117.347 330.564 123.612 327.431C129.877 324.746 147.776 308.189 147.776 308.189C128.982 315.349 107.054 314.454 107.054 314.454C153.146 308.636 201.923 254.042 206.398 242.855C210.873 231.668 212.662 209.741 212.662 209.741C214.005 214.663 211.768 255.832 211.32 263.44Z" fill="url(#paint21_linear_404_11003)"/>
<path d="M315.586 75.9409C315.586 83.1008 314.691 88.9181 313.796 91.1556C313.796 91.1556 313.796 91.3048 313.796 91.6031C313.796 91.9015 313.796 92.0506 313.796 92.0506C313.796 91.1557 315.139 71.466 307.979 60.7262C301.267 50.4339 283.814 37.4566 260.992 32.5342C260.694 32.5342 260.545 32.5342 260.545 32.5342C259.352 32.5342 258.158 32.385 256.965 32.0867L253.833 31.6392C253.534 31.6392 253.236 31.6392 252.937 31.6392C252.341 31.6392 252.042 31.6392 252.042 31.6392L257.412 30.7442L256.07 30.2968L242.645 28.5068L246.225 29.8492L253.385 32.9817C253.385 32.9817 253.236 32.9817 252.937 32.9817C252.043 33.28 250.551 34.0258 248.463 35.2191C242.198 38.7991 231.01 45.5114 219.376 57.5937C218.779 58.4887 218.033 59.2345 217.138 59.8312C210.426 66.991 205.503 74.1509 202.818 79.9683C197.896 88.4706 197.001 94.2881 197.001 94.2881L201.028 90.2606C201.028 90.2606 199.238 101.448 192.079 113.53C192.079 113.53 192.079 130.535 200.581 147.987L195.659 146.645C195.659 146.645 183.129 137.247 169.704 139.932C169.704 139.634 169.704 139.485 169.704 139.485C168.362 137.695 163.439 127.85 159.412 114.425C159.412 114.425 159.412 114.276 159.412 113.978C158.218 110.398 157.174 106.519 156.279 102.343C156.279 101.15 156.13 100.255 155.832 99.658C155.832 99.3597 155.832 99.2105 155.832 99.2105C155.832 98.9121 155.832 98.6138 155.832 98.3155C154.489 90.2606 154.042 81.7583 154.937 72.8085C158.069 49.9864 185.366 28.9543 205.503 24.9269C225.193 20.452 241.303 21.7944 241.303 21.7944C241.303 21.7944 252.043 16.872 258.307 16.4245C260.992 15.977 266.362 17.767 273.075 20.452C277.102 22.2419 281.577 24.9268 286.052 27.6118C287.842 28.8051 289.483 29.9984 290.974 31.1917C296.344 35.2192 301.714 40.1416 306.189 45.5115C306.189 45.8098 306.338 45.959 306.636 45.959C311.559 52.2239 313.796 59.3837 315.139 66.0961C315.139 66.3944 315.139 66.5436 315.139 66.5436C315.735 69.8252 315.885 72.9576 315.586 75.9409Z" fill="url(#paint22_linear_404_11003)"/>
<path d="M155.831 98.3159C155.831 98.3159 168.808 99.6583 177.311 83.5486C186.261 67.4389 179.101 46.8543 173.283 42.3794L155.831 98.3159Z" fill="url(#paint23_linear_404_11003)"/>
<path d="M253.384 32.9819C253.384 32.9819 253.235 32.9819 252.937 32.9819C252.042 33.2802 250.55 34.026 248.462 35.2193C248.462 35.2193 247.716 35.5177 246.224 36.1144C239.959 39.6943 230.115 45.9592 219.375 57.5939C213.557 64.3063 207.74 71.9137 202.818 79.9685C192.525 95.6307 183.576 110.398 175.968 112.635C165.676 115.768 156.279 99.6582 155.831 98.3157C155.831 98.3157 155.98 98.3157 156.279 98.3157L158.516 97.8682C158.516 97.8682 172.388 103.238 180.443 95.6307C186.26 89.8133 192.973 67.8862 204.608 50.8816C207.293 46.4066 209.978 42.8267 213.557 39.2468C214.452 38.6502 215.198 37.9043 215.795 37.0094C227.877 27.1645 239.065 27.612 246.224 29.8495C250.252 31.1919 252.937 32.5344 253.384 32.9819Z" fill="url(#paint24_linear_404_11003)"/>
<path d="M316.033 77.284C316.033 83.9964 314.243 89.8137 313.796 91.6037C313.796 91.902 313.796 92.0512 313.796 92.0512C313.796 90.7087 313.348 65.6492 299.029 52.6719C286.499 41.0372 271.284 35.6672 261.439 33.4298C257.859 32.5348 254.727 31.6398 252.937 31.6398C252.34 31.6398 252.042 31.6398 252.042 31.6398C252.34 31.3415 253.683 30.894 256.07 30.2973C260.544 29.4024 269.494 28.0598 281.576 28.5073C284.858 28.8057 287.991 29.7007 290.974 31.1923C297.239 34.3248 302.609 40.1422 306.636 45.9596C310.663 52.6719 313.796 60.2793 315.138 66.0967C315.138 66.395 315.138 66.5441 315.138 66.5441C315.735 70.4224 316.033 74.0024 316.033 77.284Z" fill="url(#paint25_linear_404_11003)"/>
<path d="M367.776 326.24C365.995 343.485 357.09 349.234 357.09 349.234C354.418 349.234 352.192 348.792 349.966 348.349C347.74 347.465 346.404 347.023 345.959 346.581V347.023C345.514 347.465 341.061 354.098 325.033 350.56C308.559 347.023 288.523 324.029 283.181 304.131C277.838 284.675 276.947 266.545 276.947 266.545L272.495 266.103L214.169 259.912L205.709 259.028C205.709 259.028 198.14 260.355 185.228 279.811C172.762 299.709 158.514 311.206 145.602 317.839C132.245 324.029 127.348 328.451 124.676 328.893C122.45 328.893 119.333 327.125 119.333 327.125L116.217 330.662L113.99 333.315C113.99 333.315 108.648 336.41 101.524 333.757C94.4 330.662 92.1738 322.703 92.1738 322.703L98.4071 312.09C101.969 293.076 122.895 274.062 142.04 259.47L142.486 259.028C143.673 258.144 144.86 257.259 146.047 256.375C147.828 255.196 149.461 254.017 150.945 252.837C150.945 252.543 150.945 252.543 150.945 252.837C169.645 237.361 187.9 215.694 196.805 207.735C206.155 199.333 214.169 195.796 220.847 194.469C227.526 192.7 231.533 190.49 231.533 190.49L260.028 196.238C260.028 196.238 273.831 201.544 280.064 209.061C286.297 216.136 299.654 247.531 317.909 273.178C336.164 299.267 357.535 317.839 358.426 318.723C359.316 319.607 360.207 321.376 360.207 321.376L361.097 322.261L367.776 326.24Z" fill="url(#paint26_linear_404_11003)"/>
<path d="M277.548 269.259C276.653 279.551 271.283 314.455 269.493 339.962C267.703 365.469 265.466 446.018 265.466 446.018C209.082 459.442 143.748 436.173 143.748 436.173L142.853 431.698C132.113 427.671 121.821 420.063 121.821 420.063L124.058 417.378C124.058 417.378 121.373 383.369 128.086 363.679C134.798 344.437 155.383 327.432 164.333 316.245C173.282 305.505 184.917 279.998 184.917 279.998C188.05 275.076 193.419 269.259 193.419 269.259C217.137 260.756 213.557 210.19 211.767 205.715C209.529 200.792 205.949 201.687 205.949 201.687L206.397 199.897L218.926 194.975C223.849 217.797 222.954 262.099 222.954 262.099C239.064 264.336 265.018 264.336 265.018 264.336C265.018 264.336 268.151 245.541 266.361 225.404C264.123 205.715 257.411 199.002 257.411 199.002L256.826 195.556L265.438 198.089L267.972 203.662C278.711 225.141 278.443 258.966 277.548 269.259Z" fill="#5E239D"/>
<path d="M290.593 343.446C284.613 414.542 254.711 469.093 224.012 465.963C193.313 462.386 173.379 402.022 179.359 331.373C185.738 260.278 215.64 205.726 246.339 208.856C277.038 212.433 296.972 272.798 290.593 343.446Z" fill="#5E239D"/>
<path d="M227.948 192.009L222.375 194.036C222.375 194.036 215.348 210.636 216.69 223.165C218.033 236.143 225.64 248.225 232.353 249.567C239.513 250.91 248.462 236.143 251.147 218.691C251.147 218.691 245.777 219.585 238.618 214.216C231.905 208.846 225.263 196.932 227.948 192.009Z" fill="url(#paint27_linear_404_11003)"/>
<path style="mix-blend-mode:multiply" opacity="0.6" d="M248.462 35.2199C242.197 38.7999 231.01 45.5122 219.375 57.5945C213.557 64.3069 207.74 71.9142 202.818 79.9691C197.895 88.4714 197 94.2889 197 94.2889L201.028 90.2614C201.028 90.2614 199.238 101.449 192.078 113.531C192.078 113.531 192.078 130.536 200.58 147.988L195.658 146.645C195.658 146.645 183.128 137.248 169.703 139.933C169.703 139.635 169.703 139.486 169.703 139.486C165.228 132.773 161.648 122.928 159.411 114.426C159.411 114.426 159.411 114.277 159.411 113.979C157.621 107.714 156.279 101.896 155.831 99.6588C155.831 99.3605 155.831 99.2113 155.831 99.2113C155.831 98.9129 155.831 98.6146 155.831 98.3163C155.831 98.3163 155.98 98.3163 156.279 98.3163C158.068 97.8688 167.018 96.0788 172.836 87.129C179.548 76.3892 177.311 48.1972 177.311 48.1972C177.311 48.1972 180.443 38.7999 197 30.2976C215.347 20.4527 242.197 25.3751 242.197 25.3751C242.197 25.3751 210.425 22.2427 199.685 31.64C189.393 40.5899 189.393 66.5443 189.393 66.5443C193.868 62.9644 199.685 56.6995 204.608 50.8821C205.503 49.3905 206.398 48.1972 207.293 47.3023C196.553 63.8595 189.393 88.4715 189.393 88.4715L199.685 77.7316C214.005 54.0146 239.065 40.1424 246.224 36.115C247.716 35.5183 248.462 35.2199 248.462 35.2199Z" fill="url(#paint28_linear_404_11003)"/>
<path d="M165.676 93.8413C165.676 93.8413 173.283 116.663 170.598 130.536C170.598 130.536 178.653 130.536 189.393 125.166C189.393 125.166 182.68 97.8687 170.151 87.1289L165.676 93.8413Z" fill="url(#paint29_linear_404_11003)"/>
<path d="M170.599 130.535C170.599 130.535 161.649 114.426 162.991 94.736L166.571 92.946C166.571 92.946 174.626 114.426 170.599 130.535Z" fill="#9A292C"/>
<path d="M165.229 94.2888C155.384 102.344 152.252 96.0788 152.252 96.0788C140.17 94.2888 134.8 86.234 133.01 76.3891C132.711 76.3891 132.562 76.3891 132.562 76.3891C130.325 64.7544 133.457 51.3296 137.037 47.3022C141.065 42.8273 145.539 41.4848 148.672 41.0373C150.909 40.5898 152.252 41.0373 152.252 41.0373C152.252 41.0373 161.649 33.8774 170.151 39.2473C170.748 39.844 171.345 40.4406 171.941 41.0373C180.444 49.0921 175.074 85.7865 165.229 94.2888Z" fill="url(#paint30_linear_404_11003)"/>
<path d="M210.874 103.686C210.874 103.686 225.641 80.4164 250.701 72.8091C250.701 72.8091 252.043 79.5214 247.121 84.4438C247.121 84.4438 231.459 84.4438 210.874 103.686Z" fill="url(#paint31_linear_404_11003)"/>
<path d="M290.975 88.4708C290.975 88.4708 296.344 70.5711 308.427 66.5437C308.427 66.5437 311.112 69.2287 311.559 75.9411C311.559 75.9411 299.924 75.9411 290.975 88.4708Z" fill="url(#paint32_linear_404_11003)"/>
<path d="M218.031 134.115C218.926 145.302 233.694 153.357 245.328 151.12C257.858 149.33 260.543 135.905 259.648 124.27C258.306 112.188 252.936 106.371 248.013 105.028C241.301 102.791 216.689 109.951 218.031 134.115Z" fill="url(#paint33_linear_404_11003)"/>
<path d="M312.454 124.269C312.454 126.059 312.305 127.849 312.007 129.639C311.559 132.772 310.664 135.457 309.769 136.799C307.532 139.484 303.057 140.379 299.924 139.484C298.135 139.036 296.345 138.142 295.45 137.247C284.71 122.927 295.897 100.552 301.267 98.3148C304.847 96.9723 309.769 101.447 311.559 109.95C312.007 112.187 312.454 114.872 312.454 117.557C312.753 119.944 312.753 122.181 312.454 124.269Z" fill="url(#paint34_linear_404_11003)"/>
<path d="M291.421 125.613C291.421 125.613 293.659 105.475 305.294 101.001C305.294 101.001 311.558 102.79 312.453 115.768C312.453 115.768 313.348 97.8681 303.056 95.6306C303.056 95.6306 290.526 99.6581 291.421 125.613Z" fill="#6D3A51"/>
<path d="M218.032 134.115C218.032 134.115 220.27 114.425 236.379 108.16C254.279 101.448 258.754 119.347 258.754 119.347C258.754 119.347 255.622 101 242.197 101.895C229.22 102.79 216.242 116.662 218.032 134.115Z" fill="#6D3A51"/>
<path d="M258.307 141.275C254.28 149.33 246.672 152.91 240.408 149.777C234.59 147.092 232.353 138.142 236.38 130.535C239.96 122.928 248.015 119.348 254.28 122.033C260.097 125.165 261.887 133.667 258.307 141.275Z" fill="url(#paint35_linear_404_11003)"/>
<path d="M256.517 140.379C253.832 145.749 248.014 148.882 243.539 146.644C239.064 144.407 237.722 138.142 240.407 132.325C243.092 126.955 248.909 124.27 253.384 126.507C257.859 128.297 259.201 134.562 256.517 140.379Z" fill="#522F2E"/>
<path d="M312.453 124.27C312.752 125.762 312.603 127.403 312.006 129.193C312.006 129.193 312.006 129.342 312.006 129.64C311.559 132.773 310.664 135.458 309.769 136.8C307.531 139.485 303.056 140.38 299.924 139.485C296.791 136.8 295.449 131.43 297.239 125.165C299.029 118.005 303.951 113.083 308.874 114.426C310.216 114.873 311.558 116.216 312.453 117.558C312.752 119.945 312.752 122.182 312.453 124.27Z" fill="url(#paint36_linear_404_11003)"/>
<path d="M312.005 129.193C312.005 129.193 312.005 129.342 312.005 129.64C310.663 134.563 307.083 137.695 303.503 136.8C300.371 135.905 298.581 130.983 299.923 126.06C301.713 120.69 305.293 117.11 308.425 118.005C310.663 118.453 312.453 121.138 312.453 124.27C312.751 125.762 312.602 127.403 312.005 129.193Z" fill="#522F2E"/>
<path d="M242.197 125.165C242.197 126.507 240.855 127.85 239.512 127.85C238.17 127.85 236.827 126.507 236.827 125.165C236.827 123.375 238.17 122.48 239.512 122.48C240.855 122.48 242.197 123.375 242.197 125.165Z" fill="white"/>
<path d="M304.399 139.932C304.399 139.932 298.581 134.562 290.974 130.087C290.974 130.087 278.444 137.247 279.787 147.092C279.787 147.092 295.449 147.539 299.476 145.302C303.951 143.512 304.399 139.932 304.399 139.932Z" fill="#F58E6F"/>
<path d="M303.057 118.006C303.057 119.348 302.162 120.243 300.82 120.243C299.477 120.243 298.135 119.348 298.135 118.006C298.135 116.663 299.477 115.768 300.82 115.768C302.162 115.768 303.057 116.663 303.057 118.006Z" fill="white"/>
<path d="M301.715 139.485C301.715 139.485 303.057 142.17 297.24 142.618C291.422 143.513 282.025 144.855 279.788 147.093C279.788 147.093 286.947 150.225 293.212 150.673C293.212 150.673 303.505 146.645 301.715 139.485Z" fill="#DD6668"/>
<path d="M265.466 159.175C265.466 159.175 261.886 182.892 278.891 186.472C292.316 189.604 293.211 170.809 296.343 165.887L265.466 159.175Z" fill="#F47C5C"/>
<path d="M293.211 150.672C293.211 150.672 301.713 145.302 301.713 141.722C302.161 133.22 290.079 133.667 287.841 125.165C285.604 116.663 287.841 101 287.841 101C287.841 101 286.499 118.005 289.184 125.165C291.869 131.43 303.951 137.695 304.398 139.932C305.293 142.617 301.713 148.435 293.211 150.672Z" fill="#CC5268"/>
<path d="M282.024 148.436C282.024 148.436 288.289 145.303 290.526 149.33C290.526 149.33 286.946 150.225 282.024 148.436Z" fill="#A13751"/>
<path d="M303.056 156.937C297.239 161.412 293.659 172.599 290.527 177.074C286.947 181.997 277.997 185.129 270.837 179.312C267.705 176.179 265.915 169.914 265.467 164.544C265.02 159.622 265.467 155.595 266.362 155.147C269.047 153.805 284.709 157.832 290.974 157.385C299.476 156.49 303.056 156.937 303.056 156.937Z" fill="#8B2E45"/>
<path d="M273.074 155.594C273.074 155.594 279.787 162.754 288.289 162.754C291.869 162.754 295.896 156.937 295.896 156.937C295.896 156.937 290.079 157.384 286.051 157.384C282.472 156.937 273.074 155.594 273.074 155.594Z" fill="#FFEBED"/>
<path d="M290.525 177.074C286.945 181.997 277.996 185.129 270.836 179.312C267.703 176.179 265.913 169.914 265.466 164.544C265.466 164.544 269.046 160.965 279.786 165.887C290.078 170.362 290.525 177.074 290.525 177.074Z" fill="url(#paint37_linear_404_11003)"/>
<path d="M219.375 152.91C219.375 154.7 217.585 156.49 215.795 156.49C213.558 156.49 212.215 154.7 212.215 152.91C212.215 150.673 213.558 148.883 215.795 148.883C217.585 148.883 219.375 150.673 219.375 152.91Z" fill="#FFBBA6"/>
<path d="M152.252 41.0369C152.252 41.0369 171.494 44.6168 167.019 72.8088C162.992 101.001 152.252 96.0784 152.252 96.0784C152.252 96.0784 157.174 104.133 170.152 83.5486C183.129 63.4115 174.627 42.3793 168.809 38.7994C163.439 34.772 154.042 38.7994 152.252 41.0369Z" fill="url(#paint38_linear_404_11003)"/>
<path d="M133.008 76.3882C133.008 76.3882 146.433 85.7854 155.83 77.7306C169.702 66.0958 158.515 44.1687 158.515 44.1687C158.515 44.1687 162.542 44.1687 165.675 50.4336C165.675 50.4336 167.912 94.7353 137.035 87.1279C137.035 87.1279 133.455 80.4156 133.008 76.3882Z" fill="url(#paint39_linear_404_11003)"/>
<path d="M267.255 173.047C267.255 173.047 277.995 185.129 289.629 175.284C289.629 175.284 288.734 170.809 284.707 168.572C284.707 168.572 288.287 169.914 290.524 175.284V177.074C290.524 177.074 286.497 184.234 277.995 182.444C268.15 180.207 267.255 173.047 267.255 173.047Z" fill="#FFEBED"/>
<path style="mix-blend-mode:multiply" opacity="0.6" d="M165.227 94.2886C155.382 102.343 152.25 96.0785 152.25 96.0785C140.168 94.2885 134.798 86.2337 133.008 76.3889C134.35 81.7588 137.93 90.2611 146.88 88.4712C158.962 86.6812 162.095 54.4618 148.67 41.037C149.565 41.4845 159.41 47.3019 161.2 72.809C161.2 72.809 167.912 47.7494 152.25 41.037C152.25 41.037 158.515 39.6946 165.675 50.4344C172.387 61.1742 170.15 76.3889 170.15 76.3889C170.15 76.3889 178.652 51.3293 170.15 39.2471C170.746 39.8437 171.343 40.4404 171.94 41.037C180.442 49.0919 175.072 85.7862 165.227 94.2886Z" fill="url(#paint40_linear_404_11003)"/>
<path style="mix-blend-mode:multiply" opacity="0.6" d="M313.795 92.0511C313.795 90.7086 313.348 65.6491 299.028 52.6718C286.498 41.037 271.284 35.6671 261.439 33.4296L260.544 32.5347C260.544 32.5347 260.693 32.5347 260.991 32.5347C262.334 32.5347 280.681 32.9821 296.343 42.3795C311.558 51.7768 314.69 66.9915 315.585 75.9413C315.884 76.538 316.033 76.9855 316.033 77.2838C316.033 77.2838 316.033 77.433 316.033 77.7313C316.928 85.3386 314.243 91.6036 313.795 92.0511Z" fill="url(#paint41_linear_404_11003)"/>
<path style="mix-blend-mode:multiply" opacity="0.6" d="M286.052 27.6112C270.837 21.3464 245.778 27.1638 245.778 27.1638C256.965 20.4514 273.075 20.4514 273.075 20.4514C277.102 22.2414 281.577 24.9263 286.052 27.6112Z" fill="url(#paint42_linear_404_11003)"/>
<path d="M252.042 32.5342C252.042 32.5342 240.407 22.6893 222.06 32.5342C207.293 41.0365 207.293 79.0733 181.786 95.6305C181.786 95.6305 207.293 88.4706 216.69 67.886C227.43 44.1689 234.142 30.2967 252.042 32.5342Z" fill="url(#paint43_linear_404_11003)"/>
<path style="mix-blend-mode:multiply" opacity="0.3" d="M154.042 266.125C154.042 266.125 173.284 267.915 184.471 262.098C199.686 254.043 204.161 241.513 204.161 241.513C204.161 241.513 179.996 259.86 154.042 266.125Z" fill="url(#paint44_linear_404_11003)"/>
<path d="M252.937 218.243C252.937 218.243 262.334 248.673 271.732 251.358C280.682 254.043 267.704 204.819 264.124 200.344C260.544 195.869 256.964 194.974 256.964 194.974L257.412 199.896C257.412 199.896 260.992 214.216 252.937 218.243Z" fill="url(#paint45_linear_404_11003)"/>
<path style="mix-blend-mode:multiply" opacity="0.9" d="M277.55 249.567C277.55 249.567 286.5 279.102 281.578 310.874C281.578 310.874 276.208 292.526 275.76 283.129C275.313 273.732 277.55 249.567 277.55 249.567Z" fill="url(#paint46_linear_404_11003)"/>
<path style="mix-blend-mode:multiply" opacity="0.3" d="M94.9722 316.244C94.9722 316.244 98.5521 329.669 116.004 331.459L112.872 335.038C112.872 335.038 98.1046 332.801 94.9722 316.244Z" fill="url(#paint47_linear_404_11003)"/>
<path style="mix-blend-mode:multiply" opacity="0.9" d="M226.088 276.417C226.088 276.417 259.65 278.207 267.258 277.76C267.258 277.76 252.938 281.339 246.673 282.234C239.961 283.129 226.088 276.417 226.088 276.417Z" fill="url(#paint48_linear_404_11003)"/>
<path style="mix-blend-mode:multiply" opacity="0.3" d="M343.776 351.595C343.776 351.595 355.859 341.303 358.096 325.641L358.991 326.536C358.991 326.536 358.991 346.225 347.804 352.938L343.776 351.595Z" fill="url(#paint49_linear_404_11003)"/>
<path d="M226.088 276.417L223.85 310.874C223.85 310.874 238.617 325.194 241.302 326.089C243.987 326.984 261.887 315.796 261.887 315.796L267.257 277.76C267.257 277.76 255.622 280.445 248.015 280.445C241.302 280.445 226.088 276.417 226.088 276.417Z" fill="#5E239D"/>
<path style="mix-blend-mode:multiply" opacity="0.9" d="M213.109 254.043C202.817 308.637 150.013 348.464 150.013 348.464C150.013 348.464 133.456 394.555 142.853 431.697C132.113 427.67 121.821 420.062 121.821 420.062L124.058 417.377C124.058 417.377 121.373 383.368 128.086 363.678C134.798 344.436 155.383 327.432 164.333 316.244C173.282 305.505 184.917 279.997 184.917 279.997C188.05 275.075 193.419 269.258 193.419 269.258C217.137 260.755 213.557 210.189 211.767 205.714C209.529 200.791 205.949 201.686 205.949 201.686L206.397 199.896C207.292 199.896 222.954 200.791 213.109 254.043Z" fill="url(#paint50_linear_404_11003)"/>
<path style="mix-blend-mode:multiply" opacity="0.5" d="M216.688 444.227C216.688 444.227 197.894 420.51 191.181 391.87C184.469 363.231 196.999 335.039 196.999 335.039C196.999 335.039 193.419 366.363 204.159 389.633C220.268 386.5 238.168 383.815 263.675 358.756C260.095 362.336 245.328 386.053 216.688 409.77C216.688 409.77 215.793 429.46 216.688 444.227Z" fill="url(#paint51_linear_404_11003)"/>
<path style="mix-blend-mode:soft-light" d="M265.466 446.016L265.913 438.409C265.913 438.409 234.589 456.309 143.3 434.381L141.958 428.564C141.958 428.564 132.561 424.089 124.058 417.377L121.821 420.062C121.821 420.062 130.323 427.222 141.958 431.249L143.748 436.171C143.748 436.171 207.292 458.546 265.466 446.016Z" fill="url(#paint52_linear_404_11003)"/>
<path style="mix-blend-mode:multiply" opacity="0.9" d="M226.088 276.417L225.193 309.531C225.193 309.531 242.197 321.166 244.435 322.509C246.672 324.299 260.544 316.244 260.544 316.244C260.544 316.244 244.882 326.089 241.302 326.089C239.065 326.089 222.955 310.874 222.955 310.874L226.088 276.417Z" fill="url(#paint53_linear_404_11003)"/>
<path style="mix-blend-mode:soft-light" opacity="0.5" d="M155.832 439.752C155.832 439.752 145.54 371.286 162.992 358.309C179.997 345.331 209.084 449.149 209.084 449.149C209.084 449.149 167.467 443.332 155.832 439.752Z" fill="url(#paint54_linear_404_11003)"/>
<path style="mix-blend-mode:multiply" opacity="0.5" d="M131.219 426.327C131.219 426.327 134.799 401.715 140.616 389.632C140.616 389.632 138.379 415.587 142.853 431.697L131.219 426.327Z" fill="url(#paint55_linear_404_11003)"/>
<path d="M201.924 602.191C201.924 602.191 242.198 607.114 269.495 606.219V609.351L201.924 610.246V602.191Z" fill="url(#paint56_linear_404_11003)"/>
<path d="M185.366 602.191C185.366 602.191 158.964 610.246 128.087 608.009V611.589C128.087 611.589 154.489 613.379 185.366 610.246C185.366 610.246 185.366 606.666 185.366 602.191Z" fill="url(#paint57_linear_404_11003)"/>
<path style="mix-blend-mode:multiply" opacity="0.3" d="M61.857 356.071C61.4095 356.518 57.8296 359.203 56.9346 360.098L67.2269 350.701L61.857 356.071Z" fill="url(#paint58_linear_404_11003)"/>
<path style="mix-blend-mode:multiply" opacity="0.3" d="M67.2281 371.733C69.913 371.733 73.4929 370.391 73.4929 370.391C73.4929 370.391 69.913 374.865 66.7805 375.76C66.7805 375.76 63.2006 375.313 62.3056 371.733C62.3056 371.733 57.8307 371.733 56.9357 369.943C56.0408 368.153 59.1732 360.993 61.8582 356.518C61.4107 357.413 60.5157 357.861 60.9632 358.756C61.4107 359.651 64.5431 361.441 64.5431 361.441C66.7805 358.308 72.5979 352.043 72.5979 352.043L66.3331 360.993L70.808 362.336C72.1505 361.888 80.2053 356.518 81.1003 355.623C75.2829 360.993 65.4381 367.706 65.4381 367.706C65.4381 370.391 67.2281 371.733 67.2281 371.733Z" fill="url(#paint59_linear_404_11003)"/>
<path style="mix-blend-mode:multiply" opacity="0.9" d="M62.3052 371.733C62.3052 371.733 62.7527 365.916 64.5426 361.441C66.7801 356.966 75.2825 349.358 75.2825 349.358C75.2825 349.358 67.6751 358.308 65.8851 361.888C64.0952 365.468 62.3052 371.733 62.3052 371.733Z" fill="url(#paint60_linear_404_11003)"/>
<path style="mix-blend-mode:multiply" opacity="0.9" d="M67.229 366.811C67.229 366.811 69.9139 362.783 71.2564 361.888C72.5989 361.441 81.9962 355.176 81.9962 355.176C81.9962 355.176 71.2564 364.126 67.229 366.811Z" fill="url(#paint61_linear_404_11003)"/>
<path d="M273.074 155.595C273.074 155.595 281.129 155.595 288.736 154.7C296.344 153.805 301.266 156.937 301.266 156.937C301.266 156.937 298.581 156.49 291.869 157.385C285.604 157.832 273.074 155.595 273.074 155.595Z" fill="#CC5268"/>
<path style="mix-blend-mode:multiply" opacity="0.6" d="M264.125 156.937C264.125 156.937 265.914 152.462 269.942 151.567C269.942 151.567 270.837 152.91 270.837 153.805C270.837 153.805 267.257 154.252 264.125 156.937Z" fill="url(#paint62_linear_404_11003)"/>
<path d="M195.657 146.645C195.657 146.645 181.338 136.352 166.123 139.932C151.356 143.96 159.858 173.942 180.443 182.891C201.027 192.289 209.082 179.759 209.082 174.389C209.082 169.019 195.657 146.645 195.657 146.645Z" fill="url(#paint63_linear_404_11003)"/>
<path style="mix-blend-mode:multiply" opacity="0.6" d="M199.684 160.517C199.684 160.517 186.707 149.777 175.52 151.567C164.332 152.91 170.597 171.257 170.597 171.257C170.597 171.257 171.045 168.572 175.072 168.124C175.072 168.124 181.337 174.837 192.524 177.969C192.524 177.969 178.652 171.257 176.862 164.992C176.862 164.992 186.707 176.627 195.657 173.942C204.607 171.257 199.684 160.517 199.684 160.517Z" fill="url(#paint64_linear_404_11003)"/>
<path d="M200.581 169.466C200.581 169.466 188.947 170.809 184.919 165.886C181.339 161.411 184.472 156.489 184.472 156.489C184.472 156.489 193.869 156.489 198.344 161.859C198.344 161.859 201.029 165.439 200.581 169.466Z" fill="#CC5268"/>
<path style="mix-blend-mode:multiply" opacity="0.5" d="M335.053 617.435C335.053 617.435 407.232 614.539 483.198 613.202C559.164 612.089 644.486 617.435 644.486 617.435C644.486 617.435 587.011 621.445 493 623.45C384.509 625.678 335.053 617.435 335.053 617.435Z" fill="url(#paint65_linear_404_11003)"/>
<path d="M535.105 564.415L527.308 564.638L490.327 561.965L509.263 562.633L535.105 564.415Z" fill="#561B81"/>
<path d="M421.935 522.534L397.653 561.519L431.737 538.796L421.935 522.534Z" fill="url(#paint66_linear_404_11003)"/>
<path d="M445.549 560.405L397.653 561.519L431.737 538.796L445.549 560.405Z" fill="url(#paint67_linear_404_11003)"/>
<path style="mix-blend-mode:screen" opacity="0.5" d="M414.361 534.563L427.059 541.915L405.45 556.395L400.771 556.618L414.361 534.563Z" fill="url(#paint68_linear_404_11003)"/>
<path style="mix-blend-mode:screen" d="M397.653 561.519C397.653 561.519 418.816 543.697 431.737 538.796L397.653 561.519Z" fill="url(#paint69_linear_404_11003)"/>
<path d="M358.89 617.436L359.113 561.074L410.128 559.292L408.569 617.881L358.89 617.436Z" fill="url(#paint70_linear_404_11003)"/>
<path d="M410.128 559.292L458.47 560.851V617.436L408.568 617.881L410.128 559.292Z" fill="url(#paint71_linear_404_11003)"/>
<path fill-rule="evenodd" clip-rule="evenodd" d="M387.85 605.406C387.702 604.366 387.628 603.326 387.628 602.287C387.479 601.247 387.405 600.133 387.405 598.945C386.662 598.945 385.994 598.945 385.4 598.945C384.806 598.945 384.137 598.945 383.395 598.945H383.172C383.172 599.985 383.098 601.024 382.949 602.064C382.949 603.104 382.875 604.143 382.727 605.183H377.157C378.048 599.688 378.865 594.267 379.608 588.92C380.499 583.574 381.167 578.153 381.613 572.658L388.519 572.881C389.113 578.227 389.781 583.574 390.524 588.92C391.266 594.267 392.232 599.614 393.42 604.96L387.85 605.406ZM385.177 578.45C384.88 581.272 384.583 584.094 384.286 586.915C383.989 589.589 383.766 592.336 383.618 595.158C383.915 595.158 384.212 595.158 384.509 595.158C384.806 595.158 385.177 595.158 385.623 595.158H386.959C386.811 592.485 386.514 589.737 386.068 586.915C385.771 584.094 385.474 581.272 385.177 578.45Z" fill="white"/>
<path fill-rule="evenodd" clip-rule="evenodd" d="M440.648 581.569C440.648 582.609 440.574 583.574 440.425 584.465C440.277 585.505 439.98 586.47 439.534 587.361C439.089 588.252 438.495 589.143 437.752 590.034C437.158 590.777 436.416 591.371 435.525 591.817C436.416 592.262 437.084 592.782 437.529 593.376C438.124 593.97 438.569 594.564 438.866 595.158C439.015 595.752 439.163 596.346 439.312 596.94C439.312 597.534 439.312 597.98 439.312 598.277C439.312 599.465 439.163 600.43 438.866 601.173C438.569 602.064 438.124 602.807 437.529 603.401C437.084 603.995 436.49 604.44 435.747 604.737C435.153 605.034 434.559 605.257 433.965 605.406C433.222 605.703 432.554 605.851 431.96 605.851C431.515 605.851 431.069 605.851 430.623 605.851C430.326 605.851 429.955 605.851 429.51 605.851C429.064 605.703 428.618 605.628 428.173 605.628C427.727 605.48 427.356 605.257 427.059 604.96C427.208 602.138 427.282 599.317 427.282 596.495C427.282 592.633 427.133 588.772 426.836 584.911C426.688 581.049 426.465 577.262 426.168 573.549C426.911 573.252 427.579 573.029 428.173 572.881C428.916 572.732 429.584 572.658 430.178 572.658C430.772 572.658 431.366 572.658 431.96 572.658C432.406 572.658 432.925 572.658 433.519 572.658C434.114 572.806 434.782 573.029 435.525 573.326C436.119 573.623 436.713 573.995 437.307 574.44C438.049 574.886 438.643 575.406 439.089 576C439.534 576.742 439.906 577.559 440.203 578.45C440.5 579.341 440.648 580.381 440.648 581.569ZM435.079 597.609C435.079 596.866 434.93 596.198 434.633 595.604C434.485 595.455 434.336 595.232 434.188 594.935C434.039 594.638 433.817 594.341 433.519 594.044C433.371 593.896 433.074 593.747 432.628 593.599C432.331 593.45 431.96 593.302 431.515 593.153C431.515 594.787 431.515 596.421 431.515 598.054C431.366 599.539 431.292 601.099 431.292 602.732C431.886 602.584 432.331 602.361 432.628 602.064C432.925 601.916 433.222 601.693 433.519 601.396C433.817 601.099 434.039 600.802 434.188 600.505C434.336 600.208 434.485 599.911 434.633 599.614C434.93 599.02 435.079 598.351 435.079 597.609ZM436.416 582.683C436.416 582.683 436.416 582.534 436.416 582.237C436.416 581.94 436.341 581.569 436.193 581.123C436.193 580.678 436.119 580.232 435.97 579.787C435.821 579.193 435.524 578.673 435.079 578.227C434.782 577.782 434.411 577.41 433.965 577.113C433.52 576.816 432.851 576.594 431.96 576.445C431.96 578.97 431.886 581.495 431.737 584.019C431.737 586.396 431.663 588.846 431.515 591.371C432.109 591.222 432.628 590.925 433.074 590.48C433.52 590.183 433.891 589.812 434.188 589.366C434.485 588.92 434.782 588.475 435.079 588.029C435.227 587.435 435.376 586.915 435.525 586.47C435.97 585.282 436.267 584.019 436.416 582.683Z" fill="#FFB8D4"/>
<path d="M359.113 561.074H410.129L458.471 560.851L410.129 559.292L359.113 561.074Z" fill="#F66A74"/>
<path style="mix-blend-mode:screen" d="M358.89 617.436C358.89 617.436 358.668 569.316 362.009 564.415C366.242 558.623 410.128 561.074 410.128 561.074H359.113L358.89 617.436Z" fill="url(#paint72_linear_404_11003)"/>
<path style="mix-blend-mode:screen" d="M408.569 617.881C408.569 617.881 405.673 577.559 410.129 561.074L408.569 617.881Z" fill="url(#paint73_linear_404_11003)"/>
<path style="mix-blend-mode:screen" opacity="0.5" d="M359.113 561.074L383.841 617.436H400.549L394.98 560.628L359.113 561.074Z" fill="url(#paint74_linear_404_11003)"/>
<path style="mix-blend-mode:multiply" opacity="0.5" d="M358.89 617.435L409.014 614.762L458.47 617.435H358.89Z" fill="url(#paint75_linear_404_11003)"/>
<path d="M469.832 561.519H501.911L500.129 617.436L469.832 616.544V561.519Z" fill="url(#paint76_linear_404_11003)"/>
<path d="M501.911 561.519L551.367 564.861V617.436H500.129L501.911 561.519Z" fill="url(#paint77_linear_404_11003)"/>
<path fill-rule="evenodd" clip-rule="evenodd" d="M493 590.48C493 592.708 492.851 594.638 492.554 596.272C492.257 598.054 491.812 599.539 491.218 600.727C490.772 601.767 490.178 602.658 489.435 603.401C488.693 604.143 487.95 604.737 487.208 605.183C486.614 605.628 485.945 605.925 485.203 606.074C484.46 606.222 483.866 606.297 483.421 606.297L478.742 605.851C478.891 602.881 479.039 599.911 479.188 596.94C479.188 593.821 479.188 590.703 479.188 587.584C479.039 585.356 478.965 583.054 478.965 580.678C478.817 578.45 478.668 576.148 478.52 573.772C478.965 573.772 479.336 573.772 479.633 573.772C479.93 573.772 480.302 573.772 480.747 573.772C483.124 573.772 485.129 574.143 486.762 574.886C488.396 575.628 489.658 576.742 490.549 578.227C491.44 579.712 492.035 581.495 492.332 583.574C492.777 585.653 493 587.955 493 590.48ZM488.322 590.034C488.322 589.292 488.322 588.475 488.322 587.584C488.173 586.841 488.099 586.024 488.099 585.133C487.95 584.391 487.802 583.648 487.653 582.905C487.356 582.163 487.059 581.42 486.762 580.678C486.465 580.084 486.094 579.564 485.648 579.118C485.203 578.673 484.609 578.376 483.866 578.227C483.866 579.861 483.792 581.42 483.643 582.905C483.643 584.391 483.643 585.876 483.643 587.361C483.643 588.995 483.643 590.554 483.643 592.039C483.643 593.376 483.643 594.787 483.643 596.272C483.643 597.312 483.643 598.351 483.643 599.391C483.643 600.282 483.643 601.247 483.643 602.287C484.386 602.287 485.054 602.064 485.648 601.618C486.094 601.173 486.465 600.579 486.762 599.836C487.208 599.242 487.505 598.5 487.653 597.609C487.802 596.717 487.95 595.826 488.099 594.935C488.247 594.044 488.322 593.153 488.322 592.262C488.322 591.371 488.322 590.628 488.322 590.034Z" fill="white"/>
<path d="M529.312 593.821C528.866 593.821 528.421 593.747 527.975 593.598C527.53 593.598 527.01 593.598 526.416 593.598C526.119 593.598 525.822 593.598 525.525 593.598C525.228 593.598 525.005 593.598 524.856 593.598L524.411 601.396C525.599 601.396 526.787 601.396 527.975 601.396C529.163 601.396 530.426 601.321 531.762 601.173L531.539 605.628C530.797 605.628 529.98 605.628 529.089 605.628C528.346 605.48 527.604 605.405 526.861 605.405C525.673 605.405 524.485 605.405 523.297 605.405C522.109 605.405 520.921 605.405 519.732 605.405C519.881 602.732 520.104 600.059 520.401 597.386C520.549 594.712 520.698 591.965 520.846 589.143C520.846 586.618 520.846 584.019 520.846 581.346C520.846 578.821 520.846 576.222 520.846 573.549C522.628 573.697 524.336 573.846 525.97 573.994C527.01 573.994 528.049 573.994 529.089 573.994C530.129 573.994 531.168 573.994 532.208 573.994V578.895C531.168 578.747 530.203 578.598 529.312 578.45C528.421 578.301 527.53 578.227 526.638 578.227H525.747C525.599 580.009 525.45 581.866 525.302 583.796C525.153 585.579 525.005 587.361 524.856 589.143C525.302 589.292 525.747 589.366 526.193 589.366C526.49 589.366 526.861 589.366 527.307 589.366C527.604 589.366 527.975 589.366 528.421 589.366C528.718 589.366 529.089 589.366 529.534 589.366L529.312 593.821Z" fill="#FFD6C3"/>
<path style="mix-blend-mode:screen" d="M469.832 616.544C469.832 616.544 470.054 567.311 472.059 564.415C473.841 561.519 501.911 561.519 501.911 561.519H469.832V616.544Z" fill="url(#paint78_linear_404_11003)"/>
<path style="mix-blend-mode:screen" d="M500.129 617.436C500.129 617.436 498.124 577.113 501.912 561.519L500.129 617.436Z" fill="url(#paint79_linear_404_11003)"/>
<path style="mix-blend-mode:screen" opacity="0.5" d="M472.059 561.519L488.99 617.213L498.569 617.436L492.554 561.742L472.059 561.519Z" fill="url(#paint80_linear_404_11003)"/>
<path style="mix-blend-mode:multiply" opacity="0.2" d="M551.367 564.861C551.367 564.861 548.471 609.416 544.461 613.426C540.674 617.435 500.797 613.426 500.797 613.426C500.797 613.426 474.064 616.322 472.059 615.208C469.832 614.094 470.277 593.599 470.277 593.599L469.832 616.544L551.367 617.436V564.861Z" fill="url(#paint81_linear_404_11003)"/>
<path d="M554.263 617.881L583.446 540.133L578.991 618.549L554.263 617.881Z" fill="url(#paint82_linear_404_11003)"/>
<path d="M611.293 618.549L583.446 540.133L578.991 618.549H611.293Z" fill="url(#paint83_linear_404_11003)"/>
<path style="mix-blend-mode:screen" opacity="0.5" d="M561.169 599.614L579.436 611.198L582.555 552.163L580.55 548.153L561.169 599.614Z" fill="url(#paint84_linear_404_11003)"/>
<path style="mix-blend-mode:screen" d="M583.447 540.133C583.447 540.133 576.541 600.727 578.991 618.549L583.447 540.133Z" fill="url(#paint85_linear_404_11003)"/>
<defs>
<linearGradient id="paint0_linear_404_11003" x1="0" y1="602.956" x2="1051.94" y2="602.956" gradientUnits="userSpaceOnUse">
<stop stop-color="#DB6D57"/>
<stop offset="1" stop-color="#890050"/>
</linearGradient>
<linearGradient id="paint1_linear_404_11003" x1="41.4358" y1="609.416" x2="1007.83" y2="609.416" gradientUnits="userSpaceOnUse">
<stop offset="0.006" stop-color="#281742"/>
<stop offset="1" stop-color="#322D45"/>
</linearGradient>
<linearGradient id="paint2_linear_404_11003" x1="215.868" y1="589.812" x2="847.878" y2="589.812" gradientUnits="userSpaceOnUse">
<stop stop-color="#FFEAB8"/>
<stop offset="1" stop-color="#FFC7CB"/>
</linearGradient>
<linearGradient id="paint3_linear_404_11003" x1="355.412" y1="384.263" x2="346.91" y2="326.089" gradientUnits="userSpaceOnUse">
<stop offset="0.016" stop-color="#FFAE78"/>
<stop offset="1" stop-color="#FF957C"/>
</linearGradient>
<linearGradient id="paint4_linear_404_11003" x1="367.942" y1="360.993" x2="364.81" y2="337.723" gradientUnits="userSpaceOnUse">
<stop offset="0.011" stop-color="#BE6888"/>
<stop offset="1" stop-color="#C981BA"/>
</linearGradient>
<linearGradient id="paint5_linear_404_11003" x1="376.443" y1="367.706" x2="373.311" y2="348.016" gradientUnits="userSpaceOnUse">
<stop offset="0.016" stop-color="#F0C2D6"/>
<stop offset="0.994" stop-color="#BD89C4"/>
</linearGradient>
<linearGradient id="paint6_linear_404_11003" x1="389.422" y1="372.628" x2="387.632" y2="358.756" gradientUnits="userSpaceOnUse">
<stop offset="0.016" stop-color="#F0C2D6"/>
<stop offset="0.994" stop-color="#BD89C4"/>
</linearGradient>
<linearGradient id="paint7_linear_404_11003" x1="320.955" y1="365.468" x2="316.48" y2="335.933" gradientUnits="userSpaceOnUse">
<stop offset="0.016" stop-color="#F0C2D6"/>
<stop offset="0.994" stop-color="#BD89C4"/>
</linearGradient>
<linearGradient id="paint8_linear_404_11003" x1="135.246" y1="424.089" x2="188.05" y2="424.089" gradientUnits="userSpaceOnUse">
<stop offset="0.011" stop-color="#63517C"/>
<stop offset="1" stop-color="#8E72B3"/>
</linearGradient>
<linearGradient id="paint9_linear_404_11003" x1="173.283" y1="282.235" x2="173.283" y2="250.463" gradientUnits="userSpaceOnUse">
<stop stop-color="#FFB79E"/>
<stop offset="1" stop-color="#FFE9B7"/>
</linearGradient>
<linearGradient id="paint10_linear_404_11003" x1="263.229" y1="45.5116" x2="263.229" y2="-0.132534" gradientUnits="userSpaceOnUse">
<stop offset="0.006" stop-color="#6F2E45"/>
<stop offset="1" stop-color="#923E42"/>
</linearGradient>
<linearGradient id="paint11_linear_404_11003" x1="260.544" y1="0.762451" x2="308.873" y2="0.762451" gradientUnits="userSpaceOnUse">
<stop offset="0.016" stop-color="#F0C2D6"/>
<stop offset="0.994" stop-color="#BD89C4"/>
</linearGradient>
<linearGradient id="paint12_linear_404_11003" x1="64.0949" y1="173.942" x2="54.6976" y2="105.476" gradientUnits="userSpaceOnUse">
<stop stop-color="#D6023E"/>
<stop offset="0.994" stop-color="#FF432C"/>
</linearGradient>
<linearGradient id="paint13_linear_404_11003" x1="48.4331" y1="375.761" x2="48.4331" y2="306.399" gradientUnits="userSpaceOnUse">
<stop offset="0.016" stop-color="#FFAE78"/>
<stop offset="1" stop-color="#FF957C"/>
</linearGradient>
<linearGradient id="paint14_linear_404_11003" x1="94.9724" y1="341.75" x2="94.9724" y2="327.878" gradientUnits="userSpaceOnUse">
<stop offset="0.016" stop-color="#F0C2D6"/>
<stop offset="0.994" stop-color="#BD89C4"/>
</linearGradient>
<linearGradient id="paint15_linear_404_11003" x1="222.507" y1="218.691" x2="222.507" y2="183.34" gradientUnits="userSpaceOnUse">
<stop offset="0.021" stop-color="#FF8359"/>
<stop offset="1" stop-color="#FF8B7C"/>
</linearGradient>
<linearGradient id="paint16_linear_404_11003" x1="235.485" y1="206.609" x2="235.485" y2="186.471" gradientUnits="userSpaceOnUse">
<stop offset="0.016" stop-color="#F0C2D6"/>
<stop offset="0.994" stop-color="#BD89C4"/>
</linearGradient>
<linearGradient id="paint17_linear_404_11003" x1="209.082" y1="264.335" x2="209.082" y2="206.609" gradientUnits="userSpaceOnUse">
<stop offset="0.011" stop-color="#BE6888"/>
<stop offset="1" stop-color="#C981BA"/>
</linearGradient>
<linearGradient id="paint18_linear_404_11003" x1="152.699" y1="193.184" x2="152.699" y2="23.5848" gradientUnits="userSpaceOnUse">
<stop offset="0.016" stop-color="#FFAE78"/>
<stop offset="1" stop-color="#FF957C"/>
</linearGradient>
<linearGradient id="paint19_linear_404_11003" x1="223.401" y1="356.071" x2="223.401" y2="228.983" gradientUnits="userSpaceOnUse">
<stop offset="0.011" stop-color="#BE6888"/>
<stop offset="1" stop-color="#C981BA"/>
</linearGradient>
<linearGradient id="paint20_linear_404_11003" x1="156.279" y1="181.102" x2="156.279" y2="23.5848" gradientUnits="userSpaceOnUse">
<stop offset="0.016" stop-color="#F0C2D6"/>
<stop offset="0.994" stop-color="#BD89C4"/>
</linearGradient>
<linearGradient id="paint21_linear_404_11003" x1="87.3648" y1="335.038" x2="87.3648" y2="209.741" gradientUnits="userSpaceOnUse">
<stop offset="0.011" stop-color="#BE6888"/>
<stop offset="1" stop-color="#C981BA"/>
</linearGradient>
<linearGradient id="paint22_linear_404_11003" x1="181.339" y1="147.987" x2="181.339" y2="16.4245" gradientUnits="userSpaceOnUse">
<stop offset="0.006" stop-color="#6F2E45"/>
<stop offset="1" stop-color="#923E42"/>
</linearGradient>
<linearGradient id="paint23_linear_404_11003" x1="108.397" y1="98.3159" x2="108.397" y2="42.3794" gradientUnits="userSpaceOnUse">
<stop offset="0.006" stop-color="#F20044"/>
<stop offset="1" stop-color="#D90E27"/>
</linearGradient>
<linearGradient id="paint24_linear_404_11003" x1="167.913" y1="113.083" x2="167.913" y2="28.507" gradientUnits="userSpaceOnUse">
<stop offset="0.006" stop-color="#6F2E45"/>
<stop offset="0.989" stop-color="#A6453D"/>
</linearGradient>
<linearGradient id="paint25_linear_404_11003" x1="252.042" y1="92.0512" x2="252.042" y2="28.5073" gradientUnits="userSpaceOnUse">
<stop offset="0.006" stop-color="#6F2E45"/>
<stop offset="0.989" stop-color="#A6453D"/>
</linearGradient>
<linearGradient id="paint26_linear_404_11003" x1="182.112" y1="351.445" x2="182.112" y2="190.49" gradientUnits="userSpaceOnUse">
<stop stop-color="#FFB79E"/>
<stop offset="1" stop-color="#FFC4B7"/>
</linearGradient>
<linearGradient id="paint27_linear_404_11003" x1="187.604" y1="249.567" x2="187.604" y2="193.184" gradientUnits="userSpaceOnUse">
<stop stop-color="#FFECE5"/>
<stop offset="1" stop-color="#FFF6E2"/>
</linearGradient>
<linearGradient id="paint28_linear_404_11003" x1="155.831" y1="24.0327" x2="248.462" y2="24.0327" gradientUnits="userSpaceOnUse">
<stop offset="0.016" stop-color="#F0C2D6"/>
<stop offset="0.994" stop-color="#BD89C4"/>
</linearGradient>
<linearGradient id="paint29_linear_404_11003" x1="134.351" y1="138.59" x2="125.402" y2="96.5262" gradientUnits="userSpaceOnUse">
<stop stop-color="#D6023E"/>
<stop offset="0.994" stop-color="#FF432C"/>
</linearGradient>
<linearGradient id="paint30_linear_404_11003" x1="111.978" y1="98.3162" x2="111.978" y2="37.0099" gradientUnits="userSpaceOnUse">
<stop offset="0.006" stop-color="#6F2E45"/>
<stop offset="1" stop-color="#923E42"/>
</linearGradient>
<linearGradient id="paint31_linear_404_11003" x1="218.929" y1="103.686" x2="218.929" y2="72.8091" gradientUnits="userSpaceOnUse">
<stop offset="0.006" stop-color="#6F2E45"/>
<stop offset="1" stop-color="#923E42"/>
</linearGradient>
<linearGradient id="paint32_linear_404_11003" x1="289.185" y1="88.4708" x2="289.185" y2="66.5437" gradientUnits="userSpaceOnUse">
<stop offset="0.006" stop-color="#6F2E45"/>
<stop offset="1" stop-color="#923E42"/>
</linearGradient>
<linearGradient id="paint33_linear_404_11003" x1="212.661" y1="151.567" x2="212.661" y2="104.581" gradientUnits="userSpaceOnUse">
<stop stop-color="white"/>
<stop offset="1" stop-color="#D0C7F8"/>
</linearGradient>
<linearGradient id="paint34_linear_404_11003" x1="261.888" y1="139.484" x2="261.888" y2="97.8673" gradientUnits="userSpaceOnUse">
<stop stop-color="white"/>
<stop offset="1" stop-color="#D0C7F8"/>
</linearGradient>
<linearGradient id="paint35_linear_404_11003" x1="217.138" y1="138.59" x2="231.01" y2="110.845" gradientUnits="userSpaceOnUse">
<stop offset="0.006" stop-color="#C2862E"/>
<stop offset="0.983" stop-color="#74422F"/>
</linearGradient>
<linearGradient id="paint36_linear_404_11003" x1="284.709" y1="139.485" x2="284.709" y2="114.426" gradientUnits="userSpaceOnUse">
<stop offset="0.006" stop-color="#C2862E"/>
<stop offset="0.983" stop-color="#74422F"/>
</linearGradient>
<linearGradient id="paint37_linear_404_11003" x1="265.466" y1="163.202" x2="290.525" y2="163.202" gradientUnits="userSpaceOnUse">
<stop stop-color="#CF6074"/>
<stop offset="1" stop-color="#E04A60"/>
</linearGradient>
<linearGradient id="paint38_linear_404_11003" x1="90.9456" y1="97.4208" x2="90.9456" y2="37.0094" gradientUnits="userSpaceOnUse">
<stop offset="0.006" stop-color="#6F2E45"/>
<stop offset="0.989" stop-color="#A6453D"/>
</linearGradient>
<linearGradient id="paint39_linear_404_11003" x1="119.583" y1="88.0229" x2="119.583" y2="44.1687" gradientUnits="userSpaceOnUse">
<stop offset="0.006" stop-color="#8B4156"/>
<stop offset="0.989" stop-color="#BF543D"/>
</linearGradient>
<linearGradient id="paint40_linear_404_11003" x1="133.008" y1="39.2471" x2="175.967" y2="39.2471" gradientUnits="userSpaceOnUse">
<stop offset="0.016" stop-color="#F0C2D6"/>
<stop offset="0.994" stop-color="#BD89C4"/>
</linearGradient>
<linearGradient id="paint41_linear_404_11003" x1="260.544" y1="32.5347" x2="316.033" y2="32.5347" gradientUnits="userSpaceOnUse">
<stop offset="0.016" stop-color="#F0C2D6"/>
<stop offset="0.994" stop-color="#BD89C4"/>
</linearGradient>
<linearGradient id="paint42_linear_404_11003" x1="245.778" y1="20.4514" x2="286.052" y2="20.4514" gradientUnits="userSpaceOnUse">
<stop offset="0.016" stop-color="#F0C2D6"/>
<stop offset="0.994" stop-color="#BD89C4"/>
</linearGradient>
<linearGradient id="paint43_linear_404_11003" x1="184.471" y1="95.6305" x2="184.471" y2="28.0592" gradientUnits="userSpaceOnUse">
<stop offset="0.006" stop-color="#8B4156"/>
<stop offset="0.989" stop-color="#BF543D"/>
</linearGradient>
<linearGradient id="paint44_linear_404_11003" x1="172.836" y1="266.573" x2="172.836" y2="241.513" gradientUnits="userSpaceOnUse">
<stop offset="0.011" stop-color="#BE6888"/>
<stop offset="1" stop-color="#C981BA"/>
</linearGradient>
<linearGradient id="paint45_linear_404_11003" x1="190.736" y1="251.358" x2="190.736" y2="194.974" gradientUnits="userSpaceOnUse">
<stop stop-color="#FFECE5"/>
<stop offset="1" stop-color="#FFF6E2"/>
</linearGradient>
<linearGradient id="paint46_linear_404_11003" x1="20.6918" y1="310.874" x2="20.6918" y2="249.567" gradientUnits="userSpaceOnUse">
<stop offset="0.016" stop-color="#F0C2D6"/>
<stop offset="0.994" stop-color="#BD89C4"/>
</linearGradient>
<linearGradient id="paint47_linear_404_11003" x1="96.7621" y1="335.038" x2="96.7621" y2="316.244" gradientUnits="userSpaceOnUse">
<stop offset="0.011" stop-color="#BE6888"/>
<stop offset="1" stop-color="#C981BA"/>
</linearGradient>
<linearGradient id="paint48_linear_404_11003" x1="246.226" y1="282.234" x2="246.226" y2="276.417" gradientUnits="userSpaceOnUse">
<stop offset="0.016" stop-color="#F0C2D6"/>
<stop offset="0.994" stop-color="#BD89C4"/>
</linearGradient>
<linearGradient id="paint49_linear_404_11003" x1="327.219" y1="352.938" x2="327.219" y2="325.641" gradientUnits="userSpaceOnUse">
<stop offset="0.011" stop-color="#BE6888"/>
<stop offset="1" stop-color="#C981BA"/>
</linearGradient>
<linearGradient id="paint50_linear_404_11003" x1="-115.797" y1="431.697" x2="-115.797" y2="199.896" gradientUnits="userSpaceOnUse">
<stop offset="0.016" stop-color="#F0C2D6"/>
<stop offset="0.994" stop-color="#BD89C4"/>
</linearGradient>
<linearGradient id="paint51_linear_404_11003" x1="146.432" y1="444.227" x2="146.432" y2="335.039" gradientUnits="userSpaceOnUse">
<stop offset="0.016" stop-color="#F0C2D6"/>
<stop offset="0.994" stop-color="#BD89C4"/>
</linearGradient>
<linearGradient id="paint52_linear_404_11003" x1="190.287" y1="449.596" x2="190.287" y2="417.377" gradientUnits="userSpaceOnUse">
<stop offset="0.016" stop-color="#F0C2D6"/>
<stop offset="0.994" stop-color="#BD89C4"/>
</linearGradient>
<linearGradient id="paint53_linear_404_11003" x1="209.083" y1="326.089" x2="209.083" y2="276.417" gradientUnits="userSpaceOnUse">
<stop offset="0.006" stop-color="#BD89C4"/>
<stop offset="0.984" stop-color="#F0C2D6"/>
</linearGradient>
<linearGradient id="paint54_linear_404_11003" x1="106.161" y1="449.149" x2="106.161" y2="357.414" gradientUnits="userSpaceOnUse">
<stop offset="0.016" stop-color="#F0C2D6"/>
<stop offset="0.994" stop-color="#BD89C4"/>
</linearGradient>
<linearGradient id="paint55_linear_404_11003" x1="60.9628" y1="431.697" x2="60.9628" y2="389.632" gradientUnits="userSpaceOnUse">
<stop offset="0.011" stop-color="#63517C"/>
<stop offset="1" stop-color="#8E72B3"/>
</linearGradient>
<linearGradient id="paint56_linear_404_11003" x1="201.924" y1="602.191" x2="269.495" y2="602.191" gradientUnits="userSpaceOnUse">
<stop stop-color="#FF636D"/>
<stop offset="0.989" stop-color="#FF9A00"/>
</linearGradient>
<linearGradient id="paint57_linear_404_11003" x1="128.087" y1="602.191" x2="185.366" y2="602.191" gradientUnits="userSpaceOnUse">
<stop offset="0.011" stop-color="#FF9A00"/>
<stop offset="1" stop-color="#FF636D"/>
</linearGradient>
<linearGradient id="paint58_linear_404_11003" x1="57.8296" y1="360.098" x2="57.8296" y2="350.701" gradientUnits="userSpaceOnUse">
<stop offset="0.011" stop-color="#BE6888"/>
<stop offset="1" stop-color="#C981BA"/>
</linearGradient>
<linearGradient id="paint59_linear_404_11003" x1="57.3832" y1="375.76" x2="57.3832" y2="352.043" gradientUnits="userSpaceOnUse">
<stop offset="0.011" stop-color="#BE6888"/>
<stop offset="1" stop-color="#C981BA"/>
</linearGradient>
<linearGradient id="paint60_linear_404_11003" x1="49.7754" y1="371.733" x2="49.7754" y2="349.358" gradientUnits="userSpaceOnUse">
<stop offset="0.016" stop-color="#F0C2D6"/>
<stop offset="0.994" stop-color="#BD89C4"/>
</linearGradient>
<linearGradient id="paint61_linear_404_11003" x1="70.3614" y1="366.811" x2="70.3614" y2="355.176" gradientUnits="userSpaceOnUse">
<stop offset="0.016" stop-color="#F0C2D6"/>
<stop offset="0.994" stop-color="#BD89C4"/>
</linearGradient>
<linearGradient id="paint62_linear_404_11003" x1="265.914" y1="156.937" x2="265.467" y2="152.015" gradientUnits="userSpaceOnUse">
<stop offset="0.006" stop-color="#BD89C4"/>
<stop offset="0.984" stop-color="#F0C2D6"/>
</linearGradient>
<linearGradient id="paint63_linear_404_11003" x1="209.53" y1="185.129" x2="206.397" y2="136.8" gradientUnits="userSpaceOnUse">
<stop offset="0.021" stop-color="#FF8359"/>
<stop offset="1" stop-color="#FF8B7C"/>
</linearGradient>
<linearGradient id="paint64_linear_404_11003" x1="199.684" y1="149.777" x2="168.36" y2="152.015" gradientUnits="userSpaceOnUse">
<stop offset="0.006" stop-color="#B060F4"/>
<stop offset="1" stop-color="#FFEADB"/>
</linearGradient>
<linearGradient id="paint65_linear_404_11003" x1="335.053" y1="613.202" x2="644.486" y2="613.202" gradientUnits="userSpaceOnUse">
<stop stop-color="#B16D98"/>
<stop offset="1" stop-color="#A4A7FA"/>
</linearGradient>
<linearGradient id="paint66_linear_404_11003" x1="410.128" y1="499.588" x2="374.262" y2="519.415" gradientUnits="userSpaceOnUse">
<stop stop-color="#AB4AD4"/>
<stop offset="1" stop-color="#FF6FF4"/>
</linearGradient>
<linearGradient id="paint67_linear_404_11003" x1="422.381" y1="518.524" x2="385.177" y2="539.242" gradientUnits="userSpaceOnUse">
<stop stop-color="#723ECA"/>
<stop offset="1" stop-color="#AB39D4"/>
</linearGradient>
<linearGradient id="paint68_linear_404_11003" x1="394.534" y1="545.479" x2="401.663" y2="558.4" gradientUnits="userSpaceOnUse">
<stop stop-color="#6D7252"/>
<stop offset="1"/>
</linearGradient>
<linearGradient id="paint69_linear_404_11003" x1="329.484" y1="354.116" x2="293.84" y2="373.721" gradientUnits="userSpaceOnUse">
<stop/>
<stop offset="0.98" stop-color="#6868C2"/>
</linearGradient>
<linearGradient id="paint70_linear_404_11003" x1="351.093" y1="617.881" x2="351.093" y2="559.292" gradientUnits="userSpaceOnUse">
<stop offset="0.006" stop-color="#FF1144"/>
<stop offset="1" stop-color="#FF7566"/>
</linearGradient>
<linearGradient id="paint71_linear_404_11003" x1="408.568" y1="559.292" x2="458.47" y2="559.292" gradientUnits="userSpaceOnUse">
<stop stop-color="#D2023E"/>
<stop offset="0.994" stop-color="#9C0244"/>
</linearGradient>
<linearGradient id="paint72_linear_404_11003" x1="353.098" y1="617.435" x2="353.098" y2="560.628" gradientUnits="userSpaceOnUse">
<stop/>
<stop offset="0.98" stop-color="#A46840"/>
</linearGradient>
<linearGradient id="paint73_linear_404_11003" x1="-243.932" y1="617.881" x2="-243.932" y2="561.074" gradientUnits="userSpaceOnUse">
<stop/>
<stop offset="0.98" stop-color="#A46840"/>
</linearGradient>
<linearGradient id="paint74_linear_404_11003" x1="340.846" y1="617.436" x2="340.846" y2="560.628" gradientUnits="userSpaceOnUse">
<stop/>
<stop offset="1" stop-color="#6D7252"/>
</linearGradient>
<linearGradient id="paint75_linear_404_11003" x1="358.89" y1="614.762" x2="458.47" y2="614.762" gradientUnits="userSpaceOnUse">
<stop stop-color="#890050"/>
<stop offset="1" stop-color="#DB6D57"/>
</linearGradient>
<linearGradient id="paint76_linear_404_11003" x1="437.084" y1="617.436" x2="437.084" y2="561.519" gradientUnits="userSpaceOnUse">
<stop stop-color="#9FA400"/>
<stop offset="1" stop-color="#B3B300"/>
</linearGradient>
<linearGradient id="paint77_linear_404_11003" x1="495.228" y1="617.436" x2="495.228" y2="561.519" gradientUnits="userSpaceOnUse">
<stop stop-color="#777000"/>
<stop offset="1" stop-color="#819A00"/>
</linearGradient>
<linearGradient id="paint78_linear_404_11003" x1="469.832" y1="561.519" x2="501.911" y2="561.519" gradientUnits="userSpaceOnUse">
<stop offset="0.02" stop-color="#BFB36D"/>
<stop offset="1"/>
</linearGradient>
<linearGradient id="paint79_linear_404_11003" x1="-42.0997" y1="304.661" x2="-17.3717" y2="261.888" gradientUnits="userSpaceOnUse">
<stop/>
<stop offset="0.98" stop-color="#BFB36D"/>
</linearGradient>
<linearGradient id="paint80_linear_404_11003" x1="413.692" y1="583.797" x2="444.435" y2="530.331" gradientUnits="userSpaceOnUse">
<stop/>
<stop offset="1" stop-color="#6D7252"/>
</linearGradient>
<linearGradient id="paint81_linear_404_11003" x1="469.832" y1="564.861" x2="551.367" y2="564.861" gradientUnits="userSpaceOnUse">
<stop stop-color="#890050"/>
<stop offset="1" stop-color="#DB6D57"/>
</linearGradient>
<linearGradient id="paint82_linear_404_11003" x1="463.594" y1="618.549" x2="463.594" y2="540.133" gradientUnits="userSpaceOnUse">
<stop stop-color="#D85239"/>
<stop offset="0.983" stop-color="#FF8D36"/>
</linearGradient>
<linearGradient id="paint83_linear_404_11003" x1="499.906" y1="618.549" x2="499.906" y2="540.133" gradientUnits="userSpaceOnUse">
<stop stop-color="#FFB131"/>
<stop offset="1" stop-color="#FFCC1B"/>
</linearGradient>
<linearGradient id="paint84_linear_404_11003" x1="561.169" y1="548.153" x2="582.555" y2="548.153" gradientUnits="userSpaceOnUse">
<stop stop-color="#6D7252"/>
<stop offset="1"/>
</linearGradient>
<linearGradient id="paint85_linear_404_11003" x1="-23.3897" y1="618.549" x2="-23.3897" y2="540.133" gradientUnits="userSpaceOnUse">
<stop/>
<stop offset="0.98" stop-color="#6868C2"/>
</linearGradient>
</defs>
</svg>
