<svg width="1052" height="67" viewBox="0 0 1052 67" fill="none" xmlns="http://www.w3.org/2000/svg">
<path style="mix-blend-mode:multiply" opacity="0.5" d="M1051.94 31.7725C1051.94 45.8072 855.007 66.9708 537.108 66.9708C257.972 66.9708 0 38.6785 0 31.7725C0 25.9803 257.972 15.9556 537.108 15.9556C816.021 15.9556 1051.94 25.9803 1051.94 31.7725Z" fill="url(#paint0_linear_404_11004)"/>
<path d="M45.6685 22.4158C45.6685 22.4158 41.213 27.9851 41.4358 34.2228C41.4358 34.2228 356.661 58.7279 478.073 57.8368C478.073 57.8368 599.262 40.0149 646.267 44.0248C693.05 47.812 754.536 56.2774 770.13 57.8368C785.501 59.3963 961.715 59.3962 1007.83 31.7722L1004.49 22.4158H45.6685Z" fill="url(#paint1_linear_404_11004)"/>
<path d="M1004.49 22.4159C1004.93 31.5497 958.597 43.5795 858.571 50.0399C835.848 51.5993 814.685 51.8221 794.635 51.1538C726.689 49.1488 674.337 37.3418 636.466 35.7824C587.455 33.7774 500.796 45.5844 479.187 48.4805C457.355 51.5993 30.52 33.1091 45.6687 22.4159C57.9213 13.7278 333.716 0.361328 530.425 0.361328C535.623 0.361328 540.895 0.361328 546.242 0.361328H546.688C742.06 1.02965 1003.82 13.505 1004.49 22.4159Z" fill="#5E239D"/>
<path d="M847.878 19.5201C847.878 24.8666 758.1 24.4212 633.124 25.9806C601.267 26.4261 567.405 31.7726 531.984 31.7726C357.329 31.7726 215.868 26.2033 215.868 19.5201C215.868 12.8368 357.329 2.81201 531.984 2.81201C706.416 2.81201 847.878 12.8368 847.878 19.5201Z" fill="url(#paint2_linear_404_11004)"/>
<path d="M727.358 16.8467C727.358 20.8567 636.466 20.8567 517.95 24.421C402.33 27.7627 308.765 20.8567 308.765 16.8467C308.765 12.614 402.33 6.59912 517.95 6.59912C633.57 6.59912 727.358 12.614 727.358 16.8467Z" fill="#5E239D"/>
<g style="mix-blend-mode:soft-light">
<path d="M186.016 37.1191C186.016 37.1191 431.29 43.8024 474.954 40.4608C518.618 37.1191 549.138 23.7527 572.306 22.416C595.252 21.3022 659.411 37.5647 659.411 37.5647C659.411 37.5647 610.623 33.5547 559.385 39.1241C508.147 44.6935 482.306 51.5995 482.306 51.5995C482.306 51.5995 251.066 45.8073 186.016 37.1191Z" fill="#FFF8FF"/>
</g>
<g style="mix-blend-mode:multiply" opacity="0.2">
<path d="M794.635 51.1537C794.635 51.1537 738.941 45.5843 709.758 38.6783C680.352 31.7723 605.945 25.9802 605.945 25.9802L659.411 37.5644C659.411 37.5644 773.694 53.3814 794.635 51.1537Z" fill="#79596A"/>
</g>
<defs>
<linearGradient id="paint0_linear_404_11004" x1="0" y1="15.9556" x2="1051.94" y2="15.9556" gradientUnits="userSpaceOnUse">
<stop stop-color="#DB6D57"/>
<stop offset="1" stop-color="#890050"/>
</linearGradient>
<linearGradient id="paint1_linear_404_11004" x1="41.4358" y1="22.4158" x2="1007.83" y2="22.4158" gradientUnits="userSpaceOnUse">
<stop offset="0.006" stop-color="#281742"/>
<stop offset="1" stop-color="#322D45"/>
</linearGradient>
<linearGradient id="paint2_linear_404_11004" x1="215.868" y1="2.81201" x2="847.878" y2="2.81201" gradientUnits="userSpaceOnUse">
<stop stop-color="#FFEAB8"/>
<stop offset="1" stop-color="#FFC7CB"/>
</linearGradient>
</defs>
</svg>
